<svg xmlns:svg="http://www.w3.org/2000/svg" xmlns="http://www.w3.org/2000/svg" width="417.6889mm" height="42.817139mm" viewBox="0 0 1480 151.71427" version="1.1"><style>.s0{fill:#51ca75;}.s1{fill:#56b773;}</style><g transform="translate(296.07143,-380.64793)"><g transform="translate(-483.85714,-32.07143)"><path d="m335.75 513.43363 28.125 0 28.125 0c0 0-22.5-67.5-28.125-67.5-5.625 0-28.125 67.5-28.125 67.5z" fill="#51ca75"/><path d="m363.875 513.43363 28.125 0c0 0-22.5-67.5-28.125-67.5z" fill="#56b773"/></g><g transform="matrix(1.6755556,0,0,1.4148148,107.32508,-240.05131)"><path d="m335.75 513.43363 28.125 0 28.125 0c0 0-22.5-67.5-28.125-67.5-5.625 0-28.125 67.5-28.125 67.5z" fill="#51ca75"/><path d="m363.875 513.43363 28.125 0c0 0-22.5-67.5-28.125-67.5z" fill="#56b773"/></g><path d="m-296.07143 532.36219 1480.00003 0c0 0-21-28-80-30-64-53-140.00003-10-140.00003-10 0 0-45-38-130-30-97-27-150 20-150 20 0 0-14-10-40-10-79-37-150 0-150 0-40-50-99-12-99-12-41-28-71 12-71 12-63-59-170-20-170-20-46-7-80 20-80 20-38-28-90-10-90-10-40-12-80 10-80 10-63.36923-34.99529-167.79004-9.5605-200 60z" fill="#fff"/><g transform="translate(518.57142,-267.48874)"><path d="m-500 768.13666 50 0 50 0c0 0-40-120-50-120-10 0-50 120-50 120z" fill="#51ca75"/><path d="m-450 768.13666 50 0c0 0-40-120-50-120z" fill="#56b773"/></g><g transform="translate(1480.5714,-253.48874)"><path d="m-500 768.13666 50 0 50 0c0 0-40-120-50-120-10 0-50 120-50 120z" fill="#51ca75"/><path d="m-450 768.13666 50 0c0 0-40-120-50-120z" fill="#56b773"/></g><g transform="translate(151.14286,-13.071433)"><path d="m335.75 513.43363 28.125 0 28.125 0c0 0-22.5-67.5-28.125-67.5-5.625 0-28.125 67.5-28.125 67.5z" fill="#51ca75"/><path d="m363.875 513.43363 28.125 0c0 0-22.5-67.5-28.125-67.5z" fill="#56b773"/></g></g></svg>