<?xml version="1.0" encoding="UTF-8" standalone="no"?>
<svg
   xmlns:dc="http://purl.org/dc/elements/1.1/"
   xmlns:cc="http://creativecommons.org/ns#"
   xmlns:rdf="http://www.w3.org/1999/02/22-rdf-syntax-ns#"
   xmlns:svg="http://www.w3.org/2000/svg"
   xmlns="http://www.w3.org/2000/svg"
   xmlns:sodipodi="http://sodipodi.sourceforge.net/DTD/sodipodi-0.dtd"
   xmlns:inkscape="http://www.inkscape.org/namespaces/inkscape"
   width="1462.3"
   height="70"
   version="1.1"
   id="svg2"
   inkscape:version="0.91 r13725"
   sodipodi:docname="bridge40.svg">
  <metadata
     id="metadata48">
    <rdf:RDF>
      <cc:Work
         rdf:about="">
        <dc:format>image/svg+xml</dc:format>
        <dc:type
           rdf:resource="http://purl.org/dc/dcmitype/StillImage" />
        <dc:title></dc:title>
      </cc:Work>
    </rdf:RDF>
  </metadata>
  <defs
     id="defs46" />
  <sodipodi:namedview
     pagecolor="#ffffff"
     bordercolor="#666666"
     borderopacity="1"
     objecttolerance="10"
     gridtolerance="10"
     guidetolerance="10"
     inkscape:pageopacity="0"
     inkscape:pageshadow="2"
     inkscape:window-width="1680"
     inkscape:window-height="1028"
     id="namedview44"
     showgrid="false"
     fit-margin-top="0"
     fit-margin-left="0"
     fit-margin-right="0"
     fit-margin-bottom="0"
     inkscape:showpageshadow="false"
     inkscape:zoom="1"
     inkscape:cx="379.90627"
     inkscape:cy="97.098053"
     inkscape:window-x="1358"
     inkscape:window-y="-8"
     inkscape:window-maximized="1"
     inkscape:current-layer="svg2" />
  <g
     id="g4235"
     style="opacity:0.4">
    <path
       d="m 218.82,5.74 0,43.4"
       style="fill:none;stroke:#b5b5b5;stroke-width:1.61000001;stroke-opacity:1"
       id="path6"
       inkscape:connector-curvature="0" />
    <path
       d="m 234.78,5.74 0,34.58 m 15.96,-34.58 0,26.6 m 15.96,-26.6 0,18.62 m 15.96,-18.62 0,13.3"
       style="fill:none;stroke:#b5b5b5;stroke-width:1.61000001;stroke-opacity:1"
       id="path8"
       inkscape:connector-curvature="0" />
    <path
       d="m 170.94,5.74 0,43.4"
       style="fill:#3b5c6b;stroke:#b5b5b5;stroke-width:1.61000001;stroke-opacity:1"
       id="path10"
       inkscape:connector-curvature="0" />
    <path
       d="m 154.91,5.74 0,34.58 m -15.96,-34.58 0,26.6 m -15.96,-26.6 0,18.62 m -15.96,-18.62 0,13.3"
       style="fill:#3b5c6b;stroke:#b5b5b5;stroke-width:1.61000001;stroke-opacity:1"
       id="path12"
       inkscape:connector-curvature="0" />
    <path
       d="m 576.31,5.74 0,43.4"
       style="fill:none;stroke:#b5b5b5;stroke-width:1.61000001;stroke-opacity:1"
       id="path14"
       inkscape:connector-curvature="0" />
    <path
       d="m 592.34,5.74 0,34.58 m 15.96,-34.58 0,26.6 m 15.96,-26.6 0,18.62 m 15.96,-18.62 0,13.3"
       style="fill:none;stroke:#b5b5b5;stroke-width:1.61000001;stroke-opacity:1"
       id="path16"
       inkscape:connector-curvature="0" />
    <path
       d="m 528.43,5.74 0,43.4"
       style="fill:#3b5c6b;stroke:#b5b5b5;stroke-width:1.61000001;stroke-opacity:1"
       id="path18"
       inkscape:connector-curvature="0" />
    <path
       d="m 512.47,5.74 0,34.58 m -15.96,-34.58 0,26.6 m -15.96,-26.6 0,18.62 m -15.96,-18.62 0,13.3"
       style="fill:#3b5c6b;stroke:#b5b5b5;stroke-width:1.61000001;stroke-opacity:1"
       id="path20"
       inkscape:connector-curvature="0" />
    <path
       d="m 933.87003,5.74 0,43.4"
       style="fill:none;stroke:#b5b5b5;stroke-width:1.61000001;stroke-opacity:1"
       id="path22"
       inkscape:connector-curvature="0" />
    <path
       d="m 949.83003,5.74 0,34.58 m 15.96,-34.58 0,26.6 m 15.96,-26.6 0,18.62 m 15.96,-18.62 0,13.3"
       style="fill:none;stroke:#b5b5b5;stroke-width:1.61000001;stroke-opacity:1"
       id="path24"
       inkscape:connector-curvature="0" />
    <path
       d="m 885.99003,5.74 0,43.4"
       style="fill:#3b5c6b;stroke:#b5b5b5;stroke-width:1.61000001;stroke-opacity:1"
       id="path26"
       inkscape:connector-curvature="0" />
    <path
       d="m 870.03003,5.74 0,34.58 m -15.96,-34.58 0,26.6 m -15.96,-26.6 0,18.62 m -15.96,-18.62 0,13.3"
       style="fill:#3b5c6b;stroke:#b5b5b5;stroke-width:1.61000001;stroke-opacity:1"
       id="path28"
       inkscape:connector-curvature="0" />
    <path
       d="m 1291.43,5.74 0,43.4"
       style="fill:none;stroke:#b5b5b5;stroke-width:1.61000001;stroke-opacity:1"
       id="path30"
       inkscape:connector-curvature="0" />
    <path
       d="m 1307.39,5.74 0,34.58 m 15.96,-34.58 0,26.6 m 15.96,-26.6 0,18.62 m 15.96,-18.62 0,13.3"
       style="fill:none;stroke:#b5b5b5;stroke-width:1.61000001;stroke-opacity:1"
       id="path32"
       inkscape:connector-curvature="0" />
    <path
       d="m 1243.55,5.74 0,43.4"
       style="fill:#3b5c6b;stroke:#b5b5b5;stroke-width:1.61000001;stroke-opacity:1"
       id="path34"
       inkscape:connector-curvature="0" />
    <path
       d="m 1227.59,5.74 0,34.58 m -15.96,-34.58 0,26.6 m -15.96,-26.6 0,18.62 m -15.96,-18.62 0,13.3"
       style="fill:#3b5c6b;stroke:#b5b5b5;stroke-width:1.61000001;stroke-opacity:1"
       id="path36"
       inkscape:connector-curvature="0" />
    <path
       d="M 199.64,62.16 C 274.19,3.64 372.05,3.64 372.05,3.64 m -182,58.52 C 115.57,3.64 17.71,3.64 17.71,3.64 M 557.2,62.16 C 631.68,3.64 729.61003,3.64 729.61003,3.64 M 547.61,62.16 C 473.06,3.64 375.2,3.64 375.2,3.64 M 914.76003,62.16 C 989.24003,3.64 1087.1,3.64 1087.1,3.64 M 905.17003,62.16 c -74.55,-58.52 -172.41,-58.52 -172.41,-58.52 M 1272.32,62.16 C 1346.8,3.64 1444.66,3.64 1444.66,3.64 m -182,58.52 C 1188.18,3.64 1090.32,3.64 1090.32,3.64"
       style="fill:none;stroke:#b5b5b5;stroke-width:3.22000003;stroke-opacity:1"
       id="path38"
       inkscape:connector-curvature="0" />
    <path
       d="m 188.3,5.32 0,64.68 13.16,0 0,-64.68 z m 357.49,0 0,64.68 13.16,0 0,-64.68 z m 357.56003,0 0,64.68 13.16,0 0,-64.68 z m 357.55997,0 0,64.68 13.16,0 0,-64.68 z"
       id="path40"
       inkscape:connector-curvature="0"
       style="fill:#b5b5b5;fill-opacity:1;stroke:none;stroke-opacity:1" />
    <path
       d="m 1462.3,7 0,-7 L 0,0 0,7 Z"
       id="path42"
       inkscape:connector-curvature="0"
       style="fill:#cdcdcd;fill-opacity:1" />
  </g>
</svg>
