<svg xmlns:svg="http://www.w3.org/2000/svg" xmlns="http://www.w3.org/2000/svg" width="2089" height="100" version="1.1"><g transform="translate(249.66166,-807.37215)"><path d="m62.9 815.6 0 62" style="fill:none;stroke-width:2.3;stroke:#a0bcc8"/><path d="m85.7 815.6 0 49.4M108.5 815.6l0 38M131.3 815.6l0 26.6M154.1 815.6l0 19" style="fill:none;stroke-width:2.3;stroke:#a0bcc8"/><path d="m-5.5 815.6 0 62" style="fill:#3b5c6b;stroke-width:2.3;stroke:#a0bcc8"/><path d="m-28.4 815.6 0 49.4M-51.2 815.6l0 38M-74 815.6l0 26.6M-96.8 815.6l0 19" style="fill:#3b5c6b;stroke-width:2.3;stroke:#a0bcc8"/><path d="m573.6 815.6 0 62" style="fill:none;stroke-width:2.3;stroke:#a0bcc8"/><path d="m596.5 815.6 0 49.4M619.3 815.6l0 38M642.1 815.6l0 26.6M664.9 815.6l0 19" style="fill:none;stroke-width:2.3;stroke:#a0bcc8"/><path d="m505.2 815.6 0 62" style="fill:#3b5c6b;stroke-width:2.3;stroke:#a0bcc8"/><path d="m482.4 815.6 0 49.4M459.6 815.6l0 38M436.8 815.6l0 26.6M414 815.6l0 19" style="fill:#3b5c6b;stroke-width:2.3;stroke:#a0bcc8"/><path d="m1084.4 815.6 0 62" style="fill:none;stroke-width:2.3;stroke:#a0bcc8"/><path d="m1107.2 815.6 0 49.4M1130 815.6l0 38M1152.8 815.6l0 26.6M1175.6 815.6l0 19" style="fill:none;stroke-width:2.3;stroke:#a0bcc8"/><path d="m1016 815.6 0 62" style="fill:#3b5c6b;stroke-width:2.3;stroke:#a0bcc8"/><path d="m993.2 815.6 0 49.4M970.4 815.6l0 38M947.6 815.6l0 26.6M924.8 815.6l0 19" style="fill:#3b5c6b;stroke-width:2.3;stroke:#a0bcc8"/><path d="m1595.2 815.6 0 62" style="fill:none;stroke-width:2.3;stroke:#a0bcc8"/><path d="m1618 815.6 0 49.4M1640.8 815.6l0 38M1663.6 815.6l0 26.6M1686.4 815.6l0 19" style="fill:none;stroke-width:2.3;stroke:#a0bcc8"/><path d="m1526.8 815.6 0 62" style="fill:#3b5c6b;stroke-width:2.3;stroke:#a0bcc8"/><path d="m1504 815.6 0 49.4M1481.2 815.6l0 38M1458.4 815.6l0 26.6M1435.6 815.6l0 19" style="fill:#3b5c6b;stroke-width:2.3;stroke:#a0bcc8"/><path d="M35.5 896.2C142 812.6 281.8 812.6 281.8 812.6M21.8 896.2c-106.4-83.6-246.2-83.6-246.2-83.6M546.3 896.2C652.7 812.6 792.6 812.6 792.6 812.6M532.6 896.2C426.1 812.6 286.3 812.6 286.3 812.6M1057.1 896.2c106.4-83.6 246.2-83.6 246.2-83.6M1043.4 896.2C936.9 812.6 797.1 812.6 797.1 812.6M1567.9 896.2c106.4-83.6 246.2-83.6 246.2-83.6M1554.1 896.2C1447.7 812.6 1307.9 812.6 1307.9 812.6" style="fill:none;stroke-width:4.6;stroke:#a0bcc8"/><path d="m19.3 815 0 92.4 18.8 0 0-92.4zM530 815l0 92.4 18.8 0 0-92.4zM1040.8 815l0 92.4 18.8 0 0-92.4zM1551.6 815l0 92.4 18.8 0 0-92.4z" fill="#a0bcc8"/><path d="m1839.3 817.4 0-10-2089 0 0 10z" fill="#bfd2da"/></g></svg>