<?xml version="1.0" encoding="UTF-8" standalone="no"?>
<!-- Created with Inkscape (http://www.inkscape.org/) -->

<svg
   xmlns:dc="http://purl.org/dc/elements/1.1/"
   xmlns:cc="http://creativecommons.org/ns#"
   xmlns:rdf="http://www.w3.org/1999/02/22-rdf-syntax-ns#"
   xmlns:svg="http://www.w3.org/2000/svg"
   xmlns="http://www.w3.org/2000/svg"
   xmlns:sodipodi="http://sodipodi.sourceforge.net/DTD/sodipodi-0.dtd"
   xmlns:inkscape="http://www.inkscape.org/namespaces/inkscape"
   width="1200"
   height="630"
   id="svg2"
   version="1.1"
   inkscape:version="0.48.4 r9939"
   sodipodi:docname="drawing.svg"
   inkscape:export-filename="/home/vladimir/Dropbox/site/portfolio/assets/img/poster.png"
   inkscape:export-xdpi="90"
   inkscape:export-ydpi="90">
  <defs
     id="defs4" />
  <sodipodi:namedview
     id="base"
     pagecolor="#e8eef1"
     bordercolor="#666666"
     borderopacity="1.0"
     inkscape:pageopacity="1"
     inkscape:pageshadow="2"
     inkscape:zoom="0.52017737"
     inkscape:cx="681.60557"
     inkscape:cy="365.94304"
     inkscape:document-units="px"
     inkscape:current-layer="layer1"
     showgrid="false"
     inkscape:showpageshadow="false"
     width="1366px"
     inkscape:window-width="1313"
     inkscape:window-height="744"
     inkscape:window-x="53"
     inkscape:window-y="24"
     inkscape:window-maximized="1"
     showguides="true"
     inkscape:guide-bbox="true" />
  <metadata
     id="metadata7">
    <rdf:RDF>
      <cc:Work
         rdf:about="">
        <dc:format>image/svg+xml</dc:format>
        <dc:type
           rdf:resource="http://purl.org/dc/dcmitype/StillImage" />
        <dc:title></dc:title>
      </cc:Work>
    </rdf:RDF>
  </metadata>
  <g
     inkscape:label="Layer 1"
     inkscape:groupmode="layer"
     id="layer1"
     transform="translate(0,-422.36217)">
    <g
       id="g3768"
       transform="matrix(0.24540402,0,0,0.24540402,179.63518,904.78585)">
      <rect
         id="rect3770"
         transform="scale(-1,1)"
         ry="0.5"
         y="11.2"
         x="-700.40002"
         height="153.8"
         width="13.8"
         style="fill:#0f171b" />
      <path
         id="path3772"
         d="m 561.7,161.9 c 8.8,0 15.9,7.2 15.9,15.9 0,8.8 -7.1,15.9 -15.9,15.9 -8.8,0 -15.9,-7.2 -15.9,-16 0,-8.8 7.2,-15.9 15.9,-15.9 z"
         inkscape:connector-curvature="0"
         style="fill:#0d1417" />
      <path
         id="path3774"
         d="m 561.6,170.9 c 3.8,0 6.9,3.1 6.9,6.9 0,3.8 -3.1,6.9 -6.9,6.9 -3.8,0 -6.9,-3.1 -6.9,-6.9 0,-3.8 3.1,-6.9 6.9,-6.9 z"
         inkscape:connector-curvature="0"
         style="fill:#253841" />
      <path
         id="path3776"
         d="m 594.3,161.9 c 8.8,0 15.9,7.2 15.9,15.9 0,8.8 -7.1,15.9 -15.9,15.9 -8.8,0 -15.9,-7.2 -15.9,-16 0,-8.8 7.2,-15.9 15.9,-15.9 z"
         inkscape:connector-curvature="0"
         style="fill:#0f171b" />
      <path
         id="path3778"
         d="m 594.3,170.9 c 3.8,0 6.9,3.1 6.9,6.9 0,3.8 -3.1,6.9 -6.9,6.9 -3.8,0 -6.9,-3.1 -6.9,-6.9 0,-3.8 3.1,-6.9 6.9,-6.9 z"
         inkscape:connector-curvature="0"
         style="fill:#253841" />
      <path
         id="path3780"
         d="m 626.9,161.9 c 8.8,0 15.9,7.2 15.9,15.9 0,8.8 -7.1,15.9 -15.9,15.9 -8.8,0 -15.9,-7.2 -15.9,-16 0,-8.8 7.2,-15.9 15.9,-15.9 z"
         inkscape:connector-curvature="0"
         style="fill:#0d1417" />
      <path
         id="path3782"
         d="m 626.9,170.9 c 3.8,0 6.9,3.1 6.9,6.9 0,3.8 -3.1,6.9 -6.9,6.9 -3.8,0 -6.9,-3.1 -6.9,-6.9 0,-3.8 3.1,-6.9 6.9,-6.9 z"
         inkscape:connector-curvature="0"
         style="fill:#253841" />
      <path
         id="path3784"
         d="m 529,161.9 c 8.8,0 15.9,7.2 15.9,15.9 0,8.8 -7.1,15.9 -15.9,15.9 -8.8,0 -15.9,-7.2 -15.9,-16 0,-8.8 7.2,-15.9 15.9,-15.9 z"
         inkscape:connector-curvature="0"
         style="fill:#0f171b" />
      <path
         id="path3786"
         d="m 529,170.9 c 3.8,0 6.9,3.1 6.9,6.9 0,3.8 -3.1,6.9 -6.9,6.9 -3.8,0 -6.9,-3.1 -6.9,-6.9 0,-3.8 3.1,-6.9 6.9,-6.9 z"
         inkscape:connector-curvature="0"
         style="fill:#253841" />
      <rect
         id="rect3788"
         transform="scale(-1,1)"
         ry="4.5999999"
         y="173.2"
         x="-630.09998"
         height="9.1999998"
         width="104.3"
         style="fill:#141e23" />
      <path
         id="path3790"
         d="m 273.9,161.9 c 8.8,0 15.9,7.2 15.9,15.9 0,8.8 -7.1,15.9 -15.9,15.9 -8.8,0 -15.9,-7.2 -15.9,-16 0,-8.8 7.2,-15.9 15.9,-15.9 z"
         inkscape:connector-curvature="0"
         style="fill:#0d1417" />
      <path
         id="path3792"
         d="m 273.9,170.9 c 3.8,0 6.9,3.1 6.9,6.9 0,3.8 -3.1,6.9 -6.9,6.9 -3.8,0 -6.9,-3.1 -6.9,-6.9 0,-3.8 3.1,-6.9 6.9,-6.9 z"
         inkscape:connector-curvature="0"
         style="fill:#253841" />
      <path
         id="path3794"
         d="m 306.5,161.9 c 8.8,0 15.9,7.2 15.9,15.9 0,8.8 -7.1,15.9 -15.9,15.9 -8.8,0 -15.9,-7.2 -15.9,-16 0,-8.8 7.2,-15.9 15.9,-15.9 z"
         inkscape:connector-curvature="0"
         style="fill:#0f171b" />
      <path
         id="path3796"
         d="m 306.5,170.9 c 3.8,0 6.9,3.1 6.9,6.9 0,3.8 -3.1,6.9 -6.9,6.9 -3.8,0 -6.9,-3.1 -6.9,-6.9 0,-3.8 3.1,-6.9 6.9,-6.9 z"
         inkscape:connector-curvature="0"
         style="fill:#253841" />
      <path
         id="path3798"
         d="m 339.2,161.9 c 8.8,0 15.9,7.2 15.9,15.9 0,8.8 -7.1,15.9 -15.9,15.9 -8.8,0 -15.9,-7.2 -15.9,-16 0,-8.8 7.2,-15.9 15.9,-15.9 z"
         inkscape:connector-curvature="0"
         style="fill:#0d1417" />
      <path
         id="path3800"
         d="m 339.2,170.9 c 3.8,0 6.9,3.1 6.9,6.9 0,3.8 -3.1,6.9 -6.9,6.9 -3.8,0 -6.9,-3.1 -6.9,-6.9 0,-3.8 3.1,-6.9 6.9,-6.9 z"
         inkscape:connector-curvature="0"
         style="fill:#253841" />
      <path
         id="path3802"
         d="m 241.3,161.9 c 8.8,0 15.9,7.2 15.9,15.9 0,8.8 -7.1,15.9 -15.9,15.9 -8.8,0 -15.9,-7.2 -15.9,-16 0,-8.8 7.2,-15.9 15.9,-15.9 z"
         inkscape:connector-curvature="0"
         style="fill:#0f171b" />
      <path
         id="path3804"
         d="m 241.2,170.9 c 3.8,0 6.9,3.1 6.9,6.9 0,3.8 -3.1,6.9 -6.9,6.9 -3.8,0 -6.9,-3.1 -6.9,-6.9 0,-3.8 3.1,-6.9 6.9,-6.9 z"
         inkscape:connector-curvature="0"
         style="fill:#253841" />
      <rect
         id="rect3806"
         transform="scale(-1,1)"
         ry="4.5999999"
         y="173.2"
         x="-342.29999"
         height="9.1999998"
         width="104.3"
         style="fill:#141e23" />
      <path
         id="path3808"
         d="m 679.9,0.4 -467.5,0 c -70.9,0.5 -198,99.1 -198,139.9 0,2.9 3.5,6.7 7.8,6.7 l 657.7,0 c 4.3,0 7.8,-3 7.8,-6.7 L 687.7,7 c 0,-3.7 -3.5,-6.7 -7.8,-6.7 z"
         inkscape:connector-curvature="0"
         style="fill:#87a3b1" />
      <path
         id="path3810"
         d="m 65.2,72.5 c 2.3,-2 4.5,-3.9 6.9,-5.9 4.8,-3.8 9.7,-7.7 14.8,-11.4 5.1,-3.7 10.3,-7.4 15.6,-10.9 5.3,-3.5 10.7,-6.9 16.2,-10.2 2.7,-1.6 5.5,-3.2 8.2,-4.8 2,-1.2 4.1,-2.3 6.1,-3.4 l 130,0 c 3.8,0 1.9,2.3 1.9,2.3 0,0 -21.9,30.6 -38.2,41.3 -2.3,1.5 -5.1,2.4 -7.9,2.9 -50.1,8.9 -153.6,0 -153.6,0 z"
         inkscape:connector-curvature="0"
         style="fill:#b5ced6" />
      <path
         id="path3812"
         d="m 687.7,40.5 -339.3,0 0,45.1 339.3,0 z m -9.5,98.9 c 5.3,0 9.5,4.3 9.5,9.5 l 0,20 c 0,5.3 -4.3,9.5 -9.5,9.5 l -56.8,0 c -0.8,-8.2 -7.7,-14.5 -16.1,-14.5 l -91,0 c -8.4,0 -15.3,6.3 -16.1,14.5 l -164.6,0 c -0.8,-8.2 -7.7,-14.5 -16.1,-14.5 l -91,0 c -8.4,0 -15.3,6.3 -16.1,14.5 l -174,0 c -5.3,0 -7.5,-4.6 -9.5,-9.5 l -9,-21.8 c 0,0 4.3,-7.7 9.5,-7.7 l 650.8,0 z"
         inkscape:connector-curvature="0"
         style="fill:#283b45" />
      <path
         id="path3814"
         d="M 687.7,35 327,35 c -8.9,-0.7 -73.9,99.6 -61.4,99.6 l 422.1,0 0,14.2 -668.3,0 c -15,0 -22.8,-0.8 -18,-12.1 10.5,-23.3 30.4,-36.4 30.4,-36.4 0,0 3.1,-2.5 10.7,-2.5 L 221,96.6 c 11,1.8 58.9,-75.4 65.8,-75.9 l 401,0 z"
         inkscape:connector-curvature="0"
         style="fill:#445a66" />
      <rect
         id="rect3816"
         transform="scale(-1,1)"
         ry="0"
         y="40.5"
         x="-504.39999"
         height="45.099998"
         width="77.599998"
         style="fill:#456576" />
      <rect
         id="rect3818"
         transform="scale(-1,1)"
         ry="0"
         y="40.5"
         x="-592.5"
         height="45.099998"
         width="77.599998"
         style="fill:#456576" />
      <rect
         id="rect3820"
         transform="scale(-1,1)"
         ry="0"
         y="40.5"
         x="-662.20001"
         height="45.099998"
         width="44.700001"
         style="fill:#456576" />
      <path
         id="path3822"
         d="m 418,40.5 -73.2,0 c -3.7,0 -5.6,2.7 -6.7,5.7 l -12.7,33.7 c -2.3,6.2 3,5.7 6.7,5.7 l 85.9,0 z"
         inkscape:connector-curvature="0"
         style="fill:#456576" />
      <rect
         id="rect3824"
         ry="0.5"
         y="11.7"
         x="2725.5"
         height="153.8"
         width="13.8"
         style="fill:#0f171b" />
      <path
         id="path3826"
         d="m 1209.2,162.2 c -8.8,0 -15.9,7.2 -15.9,15.9 0,8.8 7.1,15.9 15.9,15.9 8.8,0 15.9,-7.2 15.9,-16 0,-8.8 -7.2,-15.9 -15.9,-15.9 z"
         inkscape:connector-curvature="0"
         style="fill:#0d1417" />
      <path
         id="path3828"
         d="m 1209.2,171.2 c -3.8,0 -6.9,3.1 -6.9,6.9 0,3.8 3.1,6.9 6.9,6.9 3.8,0 6.9,-3.1 6.9,-6.9 0,-3.8 -3.1,-6.9 -6.9,-6.9 z"
         inkscape:connector-curvature="0"
         style="fill:#253841" />
      <path
         id="path3830"
         d="m 1176.5,162.2 c -8.8,0 -15.9,7.2 -15.9,15.9 0,8.8 7.1,15.9 15.9,15.9 8.8,0 15.9,-7.2 15.9,-16 0,-8.8 -7.2,-15.9 -15.9,-15.9 z"
         inkscape:connector-curvature="0"
         style="fill:#0f171b" />
      <path
         id="path3832"
         d="m 1176.6,171.2 c -3.8,0 -6.9,3.1 -6.9,6.9 0,3.8 3.1,6.9 6.9,6.9 3.8,0 6.9,-3.1 6.9,-6.9 0,-3.8 -3.1,-6.9 -6.9,-6.9 z"
         inkscape:connector-curvature="0"
         style="fill:#253841" />
      <path
         id="path3834"
         d="m 1143.9,162.2 c -8.8,0 -15.9,7.2 -15.9,15.9 0,8.8 7.1,15.9 15.9,15.9 8.8,0 15.9,-7.2 15.9,-16 0,-8.8 -7.2,-15.9 -15.9,-15.9 z"
         inkscape:connector-curvature="0"
         style="fill:#0d1417" />
      <path
         id="path3836"
         d="m 1143.9,171.2 c -3.8,0 -6.9,3.1 -6.9,6.9 0,3.8 3.1,6.9 6.9,6.9 3.8,0 6.9,-3.1 6.9,-6.9 0,-3.8 -3.1,-6.9 -6.9,-6.9 z"
         inkscape:connector-curvature="0"
         style="fill:#253841" />
      <path
         id="path3838"
         d="m 1241.8,162.2 c -8.8,0 -15.9,7.2 -15.9,15.9 0,8.8 7.1,15.9 15.9,15.9 8.8,0 15.9,-7.2 15.9,-16 0,-8.8 -7.2,-15.9 -15.9,-15.9 z"
         inkscape:connector-curvature="0"
         style="fill:#0f171b" />
      <path
         id="path3840"
         d="m 1241.8,171.2 c -3.8,0 -6.9,3.1 -6.9,6.9 0,3.8 3.1,6.9 6.9,6.9 3.8,0 6.9,-3.1 6.9,-6.9 0,-3.8 -3.1,-6.9 -6.9,-6.9 z"
         inkscape:connector-curvature="0"
         style="fill:#253841" />
      <path
         id="path3842"
         d="m 1145.3,173.6 95.1,0 c 2.5,0 4.6,2 4.6,4.6 0,2.5 -2,4.6 -4.6,4.6 l -95.1,0 c -2.5,0 -4.6,-2 -4.6,-4.6 0,-2.5 2,-4.6 4.6,-4.6 z"
         inkscape:connector-curvature="0"
         style="fill:#141e23" />
      <path
         id="path3844"
         d="m 921.6,162.2 c -8.8,0 -15.9,7.2 -15.9,15.9 0,8.8 7.1,15.9 15.9,15.9 8.8,0 15.9,-7.2 15.9,-16 0,-8.8 -7.2,-15.9 -15.9,-15.9 z"
         inkscape:connector-curvature="0"
         style="fill:#0d1417" />
      <path
         id="path3846"
         d="m 921.6,171.2 c -3.8,0 -6.9,3.1 -6.9,6.9 0,3.8 3.1,6.9 6.9,6.9 3.8,0 6.9,-3.1 6.9,-6.9 0,-3.8 -3.1,-6.9 -6.9,-6.9 z"
         inkscape:connector-curvature="0"
         style="fill:#253841" />
      <path
         id="path3848"
         d="m 889,162.2 c -8.8,0 -15.9,7.2 -15.9,15.9 0,8.8 7.1,15.9 15.9,15.9 8.8,0 15.9,-7.2 15.9,-16 0,-8.8 -7.2,-15.9 -15.9,-15.9 z"
         inkscape:connector-curvature="0"
         style="fill:#0f171b" />
      <path
         id="path3850"
         d="m 889,171.2 c -3.8,0 -6.9,3.1 -6.9,6.9 0,3.8 3.1,6.9 6.9,6.9 3.8,0 6.9,-3.1 6.9,-6.9 0,-3.8 -3.1,-6.9 -6.9,-6.9 z"
         inkscape:connector-curvature="0"
         style="fill:#253841" />
      <path
         id="path3852"
         d="m 856.3,162.2 c -8.8,0 -15.9,7.2 -15.9,15.9 0,8.8 7.1,15.9 15.9,15.9 8.8,0 15.9,-7.2 15.9,-16 0,-8.8 -7.2,-15.9 -15.9,-15.9 z"
         inkscape:connector-curvature="0"
         style="fill:#0d1417" />
      <path
         id="path3854"
         d="m 856.3,171.2 c -3.8,0 -6.9,3.1 -6.9,6.9 0,3.8 3.1,6.9 6.9,6.9 3.8,0 6.9,-3.1 6.9,-6.9 0,-3.8 -3.1,-6.9 -6.9,-6.9 z"
         inkscape:connector-curvature="0"
         style="fill:#253841" />
      <path
         id="path3856"
         d="m 954.3,162.2 c -8.8,0 -15.9,7.2 -15.9,15.9 0,8.8 7.1,15.9 15.9,15.9 8.8,0 15.9,-7.2 15.9,-16 0,-8.8 -7.2,-15.9 -15.9,-15.9 z"
         inkscape:connector-curvature="0"
         style="fill:#0f171b" />
      <path
         id="path3858"
         d="m 954.3,171.2 c -3.8,0 -6.9,3.1 -6.9,6.9 0,3.8 3.1,6.9 6.9,6.9 3.8,0 6.9,-3.1 6.9,-6.9 0,-3.8 -3.1,-6.9 -6.9,-6.9 z"
         inkscape:connector-curvature="0"
         style="fill:#253841" />
      <path
         id="path3860"
         d="m 857.8,173.6 95.1,0 c 2.5,0 4.6,2 4.6,4.6 0,2.5 -2,4.6 -4.6,4.6 l -95.1,0 c -2.5,0 -4.6,-2 -4.6,-4.6 0,-2.5 2,-4.6 4.6,-4.6 z"
         inkscape:connector-curvature="0"
         style="fill:#141e23" />
      <path
         id="path3862"
         d="m 1890.1,162.2 c -8.8,0 -15.9,7.2 -15.9,15.9 0,8.8 7.1,15.9 15.9,15.9 8.8,0 15.9,-7.2 15.9,-16 0,-8.8 -7.2,-15.9 -15.9,-15.9 z"
         inkscape:connector-curvature="0"
         style="fill:#0d1417" />
      <path
         id="path3864"
         d="m 1890.1,171.2 c -3.8,0 -6.9,3.1 -6.9,6.9 0,3.8 3.1,6.9 6.9,6.9 3.8,0 6.9,-3.1 6.9,-6.9 0,-3.8 -3.1,-6.9 -6.9,-6.9 z"
         inkscape:connector-curvature="0"
         style="fill:#253841" />
      <path
         id="path3866"
         d="m 1857.4,162.2 c -8.8,0 -15.9,7.2 -15.9,15.9 0,8.8 7.1,15.9 15.9,15.9 8.8,0 15.9,-7.2 15.9,-16 0,-8.8 -7.2,-15.9 -15.9,-15.9 z"
         inkscape:connector-curvature="0"
         style="fill:#0f171b" />
      <path
         id="path3868"
         d="m 1857.5,171.2 c -3.8,0 -6.9,3.1 -6.9,6.9 0,3.8 3.1,6.9 6.9,6.9 3.8,0 6.9,-3.1 6.9,-6.9 0,-3.8 -3.1,-6.9 -6.9,-6.9 z"
         inkscape:connector-curvature="0"
         style="fill:#253841" />
      <path
         id="path3870"
         d="m 1824.8,162.2 c -8.8,0 -15.9,7.2 -15.9,15.9 0,8.8 7.1,15.9 15.9,15.9 8.8,0 15.9,-7.2 15.9,-16 0,-8.8 -7.2,-15.9 -15.9,-15.9 z"
         inkscape:connector-curvature="0"
         style="fill:#0d1417" />
      <path
         id="path3872"
         d="m 1824.8,171.2 c -3.8,0 -6.9,3.1 -6.9,6.9 0,3.8 3.1,6.9 6.9,6.9 3.8,0 6.9,-3.1 6.9,-6.9 0,-3.8 -3.1,-6.9 -6.9,-6.9 z"
         inkscape:connector-curvature="0"
         style="fill:#253841" />
      <path
         id="path3874"
         d="m 1922.7,162.2 c -8.8,0 -15.9,7.2 -15.9,15.9 0,8.8 7.1,15.9 15.9,15.9 8.8,0 15.9,-7.2 15.9,-16 0,-8.8 -7.2,-15.9 -15.9,-15.9 z"
         inkscape:connector-curvature="0"
         style="fill:#0f171b" />
      <path
         id="path3876"
         d="m 1922.8,171.2 c -3.8,0 -6.9,3.1 -6.9,6.9 0,3.8 3.1,6.9 6.9,6.9 3.8,0 6.9,-3.1 6.9,-6.9 0,-3.8 -3.1,-6.9 -6.9,-6.9 z"
         inkscape:connector-curvature="0"
         style="fill:#253841" />
      <path
         id="path3878"
         d="m 1826.2,173.6 95.1,0 c 2.5,0 4.6,2 4.6,4.6 0,2.5 -2,4.6 -4.6,4.6 l -95.1,0 c -2.5,0 -4.6,-2 -4.6,-4.6 0,-2.5 2,-4.6 4.6,-4.6 z"
         inkscape:connector-curvature="0"
         style="fill:#141e23" />
      <path
         id="path3880"
         d="m 1602.5,162.2 c -8.8,0 -15.9,7.2 -15.9,15.9 0,8.8 7.1,15.9 15.9,15.9 8.8,0 15.9,-7.2 15.9,-16 0,-8.8 -7.2,-15.9 -15.9,-15.9 z"
         inkscape:connector-curvature="0"
         style="fill:#0d1417" />
      <path
         id="path3882"
         d="m 1602.5,171.2 c -3.8,0 -6.9,3.1 -6.9,6.9 0,3.8 3.1,6.9 6.9,6.9 3.8,0 6.9,-3.1 6.9,-6.9 0,-3.8 -3.1,-6.9 -6.9,-6.9 z"
         inkscape:connector-curvature="0"
         style="fill:#253841" />
      <path
         id="path3884"
         d="m 1569.9,162.2 c -8.8,0 -15.9,7.2 -15.9,15.9 0,8.8 7.1,15.9 15.9,15.9 8.8,0 15.9,-7.2 15.9,-16 0,-8.8 -7.2,-15.9 -15.9,-15.9 z"
         inkscape:connector-curvature="0"
         style="fill:#0f171b" />
      <path
         id="path3886"
         d="m 1569.9,171.2 c -3.8,0 -6.9,3.1 -6.9,6.9 0,3.8 3.1,6.9 6.9,6.9 3.8,0 6.9,-3.1 6.9,-6.9 0,-3.8 -3.1,-6.9 -6.9,-6.9 z"
         inkscape:connector-curvature="0"
         style="fill:#253841" />
      <path
         id="path3888"
         d="m 1537.2,162.2 c -8.8,0 -15.9,7.2 -15.9,15.9 0,8.8 7.1,15.9 15.9,15.9 8.8,0 15.9,-7.2 15.9,-16 0,-8.8 -7.2,-15.9 -15.9,-15.9 z"
         inkscape:connector-curvature="0"
         style="fill:#0d1417" />
      <path
         id="path3890"
         d="m 1537.3,171.2 c -3.8,0 -6.9,3.1 -6.9,6.9 0,3.8 3.1,6.9 6.9,6.9 3.8,0 6.9,-3.1 6.9,-6.9 0,-3.8 -3.1,-6.9 -6.9,-6.9 z"
         inkscape:connector-curvature="0"
         style="fill:#253841" />
      <path
         id="path3892"
         d="m 1635.2,162.2 c -8.8,0 -15.9,7.2 -15.9,15.9 0,8.8 7.1,15.9 15.9,15.9 8.8,0 15.9,-7.2 15.9,-16 0,-8.8 -7.2,-15.9 -15.9,-15.9 z"
         inkscape:connector-curvature="0"
         style="fill:#0f171b" />
      <path
         id="path3894"
         d="m 1635.2,171.2 c -3.8,0 -6.9,3.1 -6.9,6.9 0,3.8 3.1,6.9 6.9,6.9 3.8,0 6.9,-3.1 6.9,-6.9 0,-3.8 -3.1,-6.9 -6.9,-6.9 z"
         inkscape:connector-curvature="0"
         style="fill:#253841" />
      <path
         id="path3896"
         d="m 1538.7,173.6 95.1,0 c 2.5,0 4.6,2 4.6,4.6 0,2.5 -2,4.6 -4.6,4.6 l -95.1,0 c -2.5,0 -4.6,-2 -4.6,-4.6 0,-2.5 2,-4.6 4.6,-4.6 z"
         inkscape:connector-curvature="0"
         style="fill:#141e23" />
      <path
         id="path3898"
         d="m 2902.3,162.5 c -8.8,0 -15.9,7.2 -15.9,15.9 0,8.8 7.1,15.9 15.9,15.9 8.8,0 15.9,-7.2 15.9,-16 0,-8.8 -7.2,-15.9 -15.9,-15.9 z"
         inkscape:connector-curvature="0"
         style="fill:#0d1417" />
      <path
         id="path3900"
         d="m 2902.3,171.5 c -3.8,0 -6.9,3.1 -6.9,6.9 0,3.8 3.1,6.9 6.9,6.9 3.8,0 6.9,-3.1 6.9,-6.9 0,-3.8 -3.1,-6.9 -6.9,-6.9 z"
         inkscape:connector-curvature="0"
         style="fill:#253841" />
      <path
         id="path3902"
         d="m 2869.7,162.5 c -8.8,0 -15.9,7.2 -15.9,15.9 0,8.8 7.1,15.9 15.9,15.9 8.8,0 15.9,-7.2 15.9,-16 0,-8.8 -7.2,-15.9 -15.9,-15.9 z"
         inkscape:connector-curvature="0"
         style="fill:#0f171b" />
      <path
         id="path3904"
         d="m 2869.7,171.5 c -3.8,0 -6.9,3.1 -6.9,6.9 0,3.8 3.1,6.9 6.9,6.9 3.8,0 6.9,-3.1 6.9,-6.9 0,-3.8 -3.1,-6.9 -6.9,-6.9 z"
         inkscape:connector-curvature="0"
         style="fill:#253841" />
      <path
         id="path3906"
         d="m 2837,162.5 c -8.8,0 -15.9,7.2 -15.9,15.9 0,8.8 7.1,15.9 15.9,15.9 8.8,0 15.9,-7.2 15.9,-16 0,-8.8 -7.2,-15.9 -15.9,-15.9 z"
         inkscape:connector-curvature="0"
         style="fill:#0d1417" />
      <path
         id="path3908"
         d="m 2837,171.5 c -3.8,0 -6.9,3.1 -6.9,6.9 0,3.8 3.1,6.9 6.9,6.9 3.8,0 6.9,-3.1 6.9,-6.9 0,-3.8 -3.1,-6.9 -6.9,-6.9 z"
         inkscape:connector-curvature="0"
         style="fill:#253841" />
      <path
         id="path3910"
         d="m 2935,162.5 c -8.8,0 -15.9,7.2 -15.9,15.9 0,8.8 7.1,15.9 15.9,15.9 8.8,0 15.9,-7.2 15.9,-16 0,-8.8 -7.2,-15.9 -15.9,-15.9 z"
         inkscape:connector-curvature="0"
         style="fill:#0f171b" />
      <path
         id="path3912"
         d="m 2935,171.5 c -3.8,0 -6.9,3.1 -6.9,6.9 0,3.8 3.1,6.9 6.9,6.9 3.8,0 6.9,-3.1 6.9,-6.9 0,-3.8 -3.1,-6.9 -6.9,-6.9 z"
         inkscape:connector-curvature="0"
         style="fill:#253841" />
      <rect
         id="rect3914"
         ry="4.5999999"
         y="173.8"
         x="2833.8999"
         height="9.1999998"
         width="104.3"
         style="fill:#141e23" />
      <path
         id="path3916"
         d="m 3190.1,162.5 c -8.8,0 -15.9,7.2 -15.9,15.9 0,8.8 7.1,15.9 15.9,15.9 8.8,0 15.9,-7.2 15.9,-16 0,-8.8 -7.2,-15.9 -15.9,-15.9 z"
         inkscape:connector-curvature="0"
         style="fill:#0d1417" />
      <path
         id="path3918"
         d="m 3190.1,171.5 c -3.8,0 -6.9,3.1 -6.9,6.9 0,3.8 3.1,6.9 6.9,6.9 3.8,0 6.9,-3.1 6.9,-6.9 0,-3.8 -3.1,-6.9 -6.9,-6.9 z"
         inkscape:connector-curvature="0"
         style="fill:#253841" />
      <path
         id="path3920"
         d="m 3157.4,162.5 c -8.8,0 -15.9,7.2 -15.9,15.9 0,8.8 7.1,15.9 15.9,15.9 8.8,0 15.9,-7.2 15.9,-16 0,-8.8 -7.2,-15.9 -15.9,-15.9 z"
         inkscape:connector-curvature="0"
         style="fill:#0f171b" />
      <path
         id="path3922"
         d="m 3157.5,171.5 c -3.8,0 -6.9,3.1 -6.9,6.9 0,3.8 3.1,6.9 6.9,6.9 3.8,0 6.9,-3.1 6.9,-6.9 0,-3.8 -3.1,-6.9 -6.9,-6.9 z"
         inkscape:connector-curvature="0"
         style="fill:#253841" />
      <path
         id="path3924"
         d="m 3124.8,162.5 c -8.8,0 -15.9,7.2 -15.9,15.9 0,8.8 7.1,15.9 15.9,15.9 8.8,0 15.9,-7.2 15.9,-16 0,-8.8 -7.2,-15.9 -15.9,-15.9 z"
         inkscape:connector-curvature="0"
         style="fill:#0d1417" />
      <path
         id="path3926"
         d="m 3124.8,171.5 c -3.8,0 -6.9,3.1 -6.9,6.9 0,3.8 3.1,6.9 6.9,6.9 3.8,0 6.9,-3.1 6.9,-6.9 0,-3.8 -3.1,-6.9 -6.9,-6.9 z"
         inkscape:connector-curvature="0"
         style="fill:#253841" />
      <path
         id="path3928"
         d="m 3222.7,162.5 c -8.8,0 -15.9,7.2 -15.9,15.9 0,8.8 7.1,15.9 15.9,15.9 8.8,0 15.9,-7.2 15.9,-16 0,-8.8 -7.2,-15.9 -15.9,-15.9 z"
         inkscape:connector-curvature="0"
         style="fill:#0f171b" />
      <path
         id="path3930"
         d="m 3222.7,171.5 c -3.8,0 -6.9,3.1 -6.9,6.9 0,3.8 3.1,6.9 6.9,6.9 3.8,0 6.9,-3.1 6.9,-6.9 0,-3.8 -3.1,-6.9 -6.9,-6.9 z"
         inkscape:connector-curvature="0"
         style="fill:#253841" />
      <rect
         id="rect3932"
         ry="4.5999999"
         y="173.8"
         x="3121.6001"
         height="9.1999998"
         width="104.3"
         style="fill:#141e23" />
      <path
         id="path3934"
         d="m 2570.5,162.2 c -8.8,0 -15.9,7.2 -15.9,15.9 0,8.8 7.1,15.9 15.9,15.9 8.8,0 15.9,-7.2 15.9,-16 0,-8.8 -7.2,-15.9 -15.9,-15.9 z"
         inkscape:connector-curvature="0"
         style="fill:#0d1417" />
      <path
         id="path3936"
         d="m 2570.5,171.2 c -3.8,0 -6.9,3.1 -6.9,6.9 0,3.8 3.1,6.9 6.9,6.9 3.8,0 6.9,-3.1 6.9,-6.9 0,-3.8 -3.1,-6.9 -6.9,-6.9 z"
         inkscape:connector-curvature="0"
         style="fill:#253841" />
      <path
         id="path3938"
         d="m 2537.8,162.2 c -8.8,0 -15.9,7.2 -15.9,15.9 0,8.8 7.1,15.9 15.9,15.9 8.8,0 15.9,-7.2 15.9,-16 0,-8.8 -7.2,-15.9 -15.9,-15.9 z"
         inkscape:connector-curvature="0"
         style="fill:#0f171b" />
      <path
         id="path3940"
         d="m 2537.9,171.2 c -3.8,0 -6.9,3.1 -6.9,6.9 0,3.8 3.1,6.9 6.9,6.9 3.8,0 6.9,-3.1 6.9,-6.9 0,-3.8 -3.1,-6.9 -6.9,-6.9 z"
         inkscape:connector-curvature="0"
         style="fill:#253841" />
      <path
         id="path3942"
         d="m 2505.2,162.2 c -8.8,0 -15.9,7.2 -15.9,15.9 0,8.8 7.1,15.9 15.9,15.9 8.8,0 15.9,-7.2 15.9,-16 0,-8.8 -7.2,-15.9 -15.9,-15.9 z"
         inkscape:connector-curvature="0"
         style="fill:#0d1417" />
      <path
         id="path3944"
         d="m 2505.2,171.2 c -3.8,0 -6.9,3.1 -6.9,6.9 0,3.8 3.1,6.9 6.9,6.9 3.8,0 6.9,-3.1 6.9,-6.9 0,-3.8 -3.1,-6.9 -6.9,-6.9 z"
         inkscape:connector-curvature="0"
         style="fill:#253841" />
      <path
         id="path3946"
         d="m 2603.1,162.2 c -8.8,0 -15.9,7.2 -15.9,15.9 0,8.8 7.1,15.9 15.9,15.9 8.8,0 15.9,-7.2 15.9,-16 0,-8.8 -7.2,-15.9 -15.9,-15.9 z"
         inkscape:connector-curvature="0"
         style="fill:#0f171b" />
      <path
         id="path3948"
         d="m 2603.2,171.2 c -3.8,0 -6.9,3.1 -6.9,6.9 0,3.8 3.1,6.9 6.9,6.9 3.8,0 6.9,-3.1 6.9,-6.9 0,-3.8 -3.1,-6.9 -6.9,-6.9 z"
         inkscape:connector-curvature="0"
         style="fill:#253841" />
      <path
         id="path3950"
         d="m 2506.6,173.6 95.1,0 c 2.5,0 4.6,2 4.6,4.6 0,2.5 -2,4.6 -4.6,4.6 l -95.1,0 c -2.5,0 -4.6,-2 -4.6,-4.6 0,-2.5 2,-4.6 4.6,-4.6 z"
         inkscape:connector-curvature="0"
         style="fill:#141e23" />
      <path
         id="path3952"
         d="m 2282.9,162.2 c -8.8,0 -15.9,7.2 -15.9,15.9 0,8.8 7.1,15.9 15.9,15.9 8.8,0 15.9,-7.2 15.9,-16 0,-8.8 -7.2,-15.9 -15.9,-15.9 z"
         inkscape:connector-curvature="0"
         style="fill:#0d1417" />
      <path
         id="path3954"
         d="m 2282.9,171.2 c -3.8,0 -6.9,3.1 -6.9,6.9 0,3.8 3.1,6.9 6.9,6.9 3.8,0 6.9,-3.1 6.9,-6.9 0,-3.8 -3.1,-6.9 -6.9,-6.9 z"
         inkscape:connector-curvature="0"
         style="fill:#253841" />
      <path
         id="path3956"
         d="m 2250.3,162.2 c -8.8,0 -15.9,7.2 -15.9,15.9 0,8.8 7.1,15.9 15.9,15.9 8.8,0 15.9,-7.2 15.9,-16 0,-8.8 -7.2,-15.9 -15.9,-15.9 z"
         inkscape:connector-curvature="0"
         style="fill:#0f171b" />
      <path
         id="path3958"
         d="m 2250.3,171.2 c -3.8,0 -6.9,3.1 -6.9,6.9 0,3.8 3.1,6.9 6.9,6.9 3.8,0 6.9,-3.1 6.9,-6.9 0,-3.8 -3.1,-6.9 -6.9,-6.9 z"
         inkscape:connector-curvature="0"
         style="fill:#253841" />
      <path
         id="path3960"
         d="m 2217.6,162.2 c -8.8,0 -15.9,7.2 -15.9,15.9 0,8.8 7.1,15.9 15.9,15.9 8.8,0 15.9,-7.2 15.9,-16 0,-8.8 -7.2,-15.9 -15.9,-15.9 z"
         inkscape:connector-curvature="0"
         style="fill:#0d1417" />
      <path
         id="path3962"
         d="m 2217.7,171.2 c -3.8,0 -6.9,3.1 -6.9,6.9 0,3.8 3.1,6.9 6.9,6.9 3.8,0 6.9,-3.1 6.9,-6.9 0,-3.8 -3.1,-6.9 -6.9,-6.9 z"
         inkscape:connector-curvature="0"
         style="fill:#253841" />
      <path
         id="path3964"
         d="m 2315.6,162.2 c -8.8,0 -15.9,7.2 -15.9,15.9 0,8.8 7.1,15.9 15.9,15.9 8.8,0 15.9,-7.2 15.9,-16 0,-8.8 -7.2,-15.9 -15.9,-15.9 z"
         inkscape:connector-curvature="0"
         style="fill:#0f171b" />
      <path
         id="path3966"
         d="m 2315.6,171.2 c -3.8,0 -6.9,3.1 -6.9,6.9 0,3.8 3.1,6.9 6.9,6.9 3.8,0 6.9,-3.1 6.9,-6.9 0,-3.8 -3.1,-6.9 -6.9,-6.9 z"
         inkscape:connector-curvature="0"
         style="fill:#253841" />
      <path
         id="path3968"
         d="m 2219.1,173.6 95.1,0 c 2.5,0 4.6,2 4.6,4.6 0,2.5 -2,4.6 -4.6,4.6 l -95.1,0 c -2.5,0 -4.6,-2 -4.6,-4.6 0,-2.5 2,-4.6 4.6,-4.6 z"
         inkscape:connector-curvature="0"
         style="fill:#141e23" />
      <rect
         id="rect3970"
         ry="0.5"
         y="11.7"
         x="1366.2"
         height="153.8"
         width="13.8"
         style="fill:#0f171b" />
      <path
         id="path3972"
         d="m 708.5,141.3 c -5.6,0 -10.1,4.5 -10.1,10.1 l 0,18.9 c 0,5.6 4.5,10.1 10.1,10.1 l 116.9,0 c 0.8,-8.2 7.7,-14.5 16.1,-14.5 l 91,0 c 8.4,0 15.3,6.3 16.1,14.5 l 164.6,0 c 0.8,-8.2 7.7,-14.5 16.1,-14.5 l 91,0 c 8.4,0 15.3,6.3 16.1,14.5 l 121.9,0 c 5.6,0 10.1,-4.5 10.1,-10.1 l 0,-18.9 c 0,-5.6 -4.5,-10.1 -10.1,-10.1 z"
         inkscape:connector-curvature="0"
         style="fill:#283b45" />
      <path
         id="path3974"
         d="m 706.3,0 c -4.3,0 -7.8,3 -7.8,6.7 l 0,133.3 c 0,3.7 3.5,6.7 7.8,6.7 l 654.2,0 c 4.3,0 7.8,-3 7.8,-6.7 l 0,-133.3 c 0,-3.7 -3.5,-6.7 -7.8,-6.7 z"
         inkscape:connector-curvature="0"
         style="fill:#bfccd3" />
      <path
         id="path3976"
         d="m 698.4,34.6 669.9,0 0,99.6 -669.9,0 0,14.2 669.9,0 0,-128.1 -669.9,0 z"
         inkscape:connector-curvature="0"
         style="fill:#87a3b1" />
      <rect
         id="rect3978"
         ry="8"
         y="41"
         x="717.70001"
         height="45.099998"
         width="629.70001"
         style="fill:#283b45" />
      <rect
         id="rect3980"
         ry="0"
         y="41"
         x="1171.5"
         height="45.099998"
         width="77.599998"
         style="fill:#456576" />
      <rect
         id="rect3982"
         ry="0"
         y="41"
         x="1082.6"
         height="45.099998"
         width="77.599998"
         style="fill:#456576" />
      <rect
         id="rect3984"
         ry="0"
         y="41"
         x="993.79999"
         height="45.099998"
         width="77.599998"
         style="fill:#456576" />
      <rect
         id="rect3986"
         ry="0"
         y="41"
         x="904.90002"
         height="45.099998"
         width="77.599998"
         style="fill:#456576" />
      <rect
         id="rect3988"
         ry="0"
         y="41"
         x="816.09998"
         height="45.099998"
         width="77.599998"
         style="fill:#456576" />
      <rect
         id="rect3990"
         ry="0"
         y="41"
         x="1285.8"
         height="45.099998"
         width="44.700001"
         style="fill:#456576" />
      <rect
         id="rect3992"
         ry="0"
         y="41"
         x="734.79999"
         height="45.099998"
         width="44.700001"
         style="fill:#456576" />
      <rect
         id="rect3994"
         ry="0.5"
         y="11.7"
         x="2047.1"
         height="153.8"
         width="13.8"
         style="fill:#0f171b" />
      <path
         id="path3996"
         d="m 1389.4,141.3 c -5.6,0 -10.1,4.5 -10.1,10.1 l 0,18.9 c 0,5.6 4.5,10.1 10.1,10.1 l 116.9,0 c 0.8,-8.2 7.7,-14.5 16.1,-14.5 l 91,0 c 8.4,0 15.3,6.3 16.1,14.5 l 164.6,0 c 0.8,-8.2 7.7,-14.5 16.1,-14.5 l 91,0 c 8.4,0 15.3,6.3 16.1,14.5 l 121.9,0 c 5.6,0 10.1,-4.5 10.1,-10.1 l 0,-18.9 c 0,-5.6 -4.5,-10.1 -10.1,-10.1 z"
         inkscape:connector-curvature="0"
         style="fill:#283b45" />
      <path
         id="path3998"
         d="m 1387.2,0 c -4.3,0 -7.8,3 -7.8,6.7 l 0,133.3 c 0,3.7 3.5,6.7 7.8,6.7 l 654.2,0 c 4.3,0 7.8,-3 7.8,-6.7 l 0,-133.3 c 0,-3.7 -3.5,-6.7 -7.8,-6.7 z"
         inkscape:connector-curvature="0"
         style="fill:#bfccd3" />
      <path
         id="path4000"
         d="m 1379.4,34.6 669.9,0 0,99.6 -669.9,0 0,14.2 669.9,0 0,-128.1 -669.9,0 z"
         inkscape:connector-curvature="0"
         style="fill:#87a3b1" />
      <rect
         id="rect4002"
         ry="8"
         y="41"
         x="1398.7"
         height="45.099998"
         width="629.70001"
         style="fill:#283b45" />
      <rect
         id="rect4004"
         ry="0"
         y="41"
         x="1852.4"
         height="45.099998"
         width="77.599998"
         style="fill:#456576" />
      <rect
         id="rect4006"
         ry="0"
         y="41"
         x="1763.5"
         height="45.099998"
         width="77.599998"
         style="fill:#456576" />
      <rect
         id="rect4008"
         ry="0"
         y="41"
         x="1674.7"
         height="45.099998"
         width="77.599998"
         style="fill:#456576" />
      <rect
         id="rect4010"
         ry="0"
         y="41"
         x="1585.9"
         height="45.099998"
         width="77.599998"
         style="fill:#456576" />
      <rect
         id="rect4012"
         ry="0"
         y="41"
         x="1497"
         height="45.099998"
         width="77.599998"
         style="fill:#456576" />
      <rect
         id="rect4014"
         ry="0"
         y="41"
         x="1966.7"
         height="45.099998"
         width="44.700001"
         style="fill:#456576" />
      <rect
         id="rect4016"
         ry="0"
         y="41"
         x="1415.7"
         height="45.099998"
         width="44.700001"
         style="fill:#456576" />
      <path
         id="path4018"
         d="m 2746.1,0.9 467.5,0 c 70.9,0.5 198,99.2 198,139.9 0,2.9 -3.5,6.7 -7.8,6.7 l -657.7,0 c -4.3,0 -7.8,-3 -7.8,-6.7 l 0,-133.3 c 0,-3.7 3.5,-6.7 7.8,-6.7 z"
         inkscape:connector-curvature="0"
         style="fill:#87a3b1" />
      <path
         id="path4020"
         d="m 3360.8,73.1 c -2.3,-2 -4.5,-3.9 -6.9,-5.9 -4.8,-3.8 -9.7,-7.7 -14.8,-11.4 -5.1,-3.7 -10.3,-7.4 -15.6,-10.9 -5.3,-3.5 -10.7,-6.9 -16.2,-10.2 -2.7,-1.6 -5.5,-3.2 -8.2,-4.8 -2,-1.2 -4.1,-2.3 -6.1,-3.4 l -130,0 c -3.8,0 -1.9,2.3 -1.9,2.3 0,0 21.9,30.6 38.2,41.3 2.3,1.5 5.1,2.4 7.9,2.9 50.1,8.9 153.6,0 153.6,0 z"
         inkscape:connector-curvature="0"
         style="fill:#b5ced6" />
      <path
         id="path4022"
         d="m 2738.2,41 339.3,0 0,45.1 -339.3,0 z m 9.5,98.9 c -5.3,0 -9.5,4.3 -9.5,9.5 l 0,20 c 0,5.3 4.3,9.5 9.5,9.5 l 56.8,0 c 0.8,-8.2 7.7,-14.5 16.1,-14.5 l 91,0 c 8.4,0 15.3,6.3 16.1,14.5 l 164.6,0 c 0.8,-8.2 7.7,-14.5 16.1,-14.5 l 91,0 c 8.4,0 15.3,6.3 16.1,14.5 l 174,0 c 5.3,0 7.5,-4.6 9.5,-9.5 l 9,-21.8 c 0,0 -4.3,-7.7 -9.5,-7.7 l -650.8,0 z"
         inkscape:connector-curvature="0"
         style="fill:#283b45" />
      <path
         id="path4024"
         d="m 2738.2,35.6 360.7,0 c 8.9,-0.7 73.9,99.6 61.4,99.6 l -422.1,0 0,14.2 668.3,0 c 15,0 22.8,-0.8 18,-12.1 -10.5,-23.3 -30.4,-36.4 -30.4,-36.4 0,0 -3.1,-2.5 -10.7,-2.5 l -178.5,-1.2 c -11,1.8 -58.9,-75.4 -65.8,-75.9 l -401,0 z"
         inkscape:connector-curvature="0"
         style="fill:#445a66" />
      <rect
         id="rect4026"
         ry="0"
         y="41"
         x="2921.6001"
         height="45.099998"
         width="77.599998"
         style="fill:#456576" />
      <rect
         id="rect4028"
         ry="0"
         y="41"
         x="2833.3999"
         height="45.099998"
         width="77.599998"
         style="fill:#456576" />
      <rect
         id="rect4030"
         ry="0"
         y="41"
         x="2763.7"
         height="45.099998"
         width="44.700001"
         style="fill:#456576" />
      <path
         id="path4032"
         d="m 3008,41 73.2,0 c 3.7,0 5.6,2.7 6.7,5.7 l 12.7,33.7 c 2.3,6.2 -3,5.7 -6.7,5.7 l -85.9,0 z"
         inkscape:connector-curvature="0"
         style="fill:#456576" />
      <path
         id="path4034"
         d="m 2069.8,141.3 c -5.6,0 -10.1,4.5 -10.1,10.1 l 0,18.9 c 0,5.6 4.5,10.1 10.1,10.1 l 116.9,0 c 0.8,-8.2 7.7,-14.5 16.1,-14.5 l 91,0 c 8.4,0 15.3,6.3 16.1,14.5 l 164.6,0 c 0.8,-8.2 7.7,-14.5 16.1,-14.5 l 91,0 c 8.4,0 15.3,6.3 16.1,14.5 l 121.9,0 c 5.6,0 10.1,-4.5 10.1,-10.1 l 0,-18.9 c 0,-5.6 -4.5,-10.1 -10.1,-10.1 z"
         inkscape:connector-curvature="0"
         style="fill:#283b45" />
      <path
         id="path4036"
         d="m 2067.6,0 c -4.3,0 -7.8,3 -7.8,6.7 l 0,133.3 c 0,3.7 3.5,6.7 7.8,6.7 l 654.2,0 c 4.3,0 7.8,-3 7.8,-6.7 l 0,-133.3 c 0,-3.7 -3.5,-6.7 -7.8,-6.7 z"
         inkscape:connector-curvature="0"
         style="fill:#bfccd3" />
      <path
         id="path4038"
         d="m 2059.8,34.6 669.9,0 0,99.6 -669.9,0 0,14.2 669.9,0 0,-128.1 -669.9,0 z"
         inkscape:connector-curvature="0"
         style="fill:#87a3b1" />
      <rect
         id="rect4040"
         ry="8"
         y="41"
         x="2079.1001"
         height="45.099998"
         width="629.70001"
         style="fill:#283b45" />
      <rect
         id="rect4042"
         ry="0"
         y="41"
         x="2532.8"
         height="45.099998"
         width="77.599998"
         style="fill:#456576" />
      <rect
         id="rect4044"
         ry="0"
         y="41"
         x="2443.8999"
         height="45.099998"
         width="77.599998"
         style="fill:#456576" />
      <rect
         id="rect4046"
         ry="0"
         y="41"
         x="2355.1001"
         height="45.099998"
         width="77.599998"
         style="fill:#456576" />
      <rect
         id="rect4048"
         ry="0"
         y="41"
         x="2266.3"
         height="45.099998"
         width="77.599998"
         style="fill:#456576" />
      <rect
         id="rect4050"
         ry="0"
         y="41"
         x="2177.3999"
         height="45.099998"
         width="77.599998"
         style="fill:#456576" />
      <rect
         id="rect4052"
         ry="0"
         y="41"
         x="2647.1001"
         height="45.099998"
         width="44.700001"
         style="fill:#456576" />
      <rect
         id="rect4054"
         ry="0"
         y="41"
         x="2096.1001"
         height="45.099998"
         width="44.700001"
         style="fill:#456576" />
    </g>
    <g
       id="g4208"
       transform="translate(-194.8,144.96217)">
      <path
         id="path4210"
         style="fill:none;stroke:#a0bcc8;stroke-width:2.29999995"
         d="m 62.9,815.6 0,62"
         inkscape:connector-curvature="0" />
      <path
         id="path4212"
         style="fill:none;stroke:#a0bcc8;stroke-width:2.29999995"
         d="m 85.7,815.6 0,49.4 m 22.8,-49.4 0,38 m 22.8,-38 0,26.6 m 22.8,-26.6 0,19"
         inkscape:connector-curvature="0" />
      <path
         id="path4214"
         style="fill:#3b5c6b;stroke:#a0bcc8;stroke-width:2.29999995"
         d="m -5.5,815.6 0,62"
         inkscape:connector-curvature="0" />
      <path
         id="path4216"
         style="fill:#3b5c6b;stroke:#a0bcc8;stroke-width:2.29999995"
         d="m -28.4,815.6 0,49.4 m -22.8,-49.4 0,38 m -22.8,-38 0,26.6 m -22.8,-26.6 0,19"
         inkscape:connector-curvature="0" />
      <path
         id="path4218"
         style="fill:none;stroke:#a0bcc8;stroke-width:2.29999995"
         d="m 573.6,815.6 0,62"
         inkscape:connector-curvature="0" />
      <path
         id="path4220"
         style="fill:none;stroke:#a0bcc8;stroke-width:2.29999995"
         d="m 596.5,815.6 0,49.4 m 22.8,-49.4 0,38 m 22.8,-38 0,26.6 m 22.8,-26.6 0,19"
         inkscape:connector-curvature="0" />
      <path
         id="path4222"
         style="fill:#3b5c6b;stroke:#a0bcc8;stroke-width:2.29999995"
         d="m 505.2,815.6 0,62"
         inkscape:connector-curvature="0" />
      <path
         id="path4224"
         style="fill:#3b5c6b;stroke:#a0bcc8;stroke-width:2.29999995"
         d="m 482.4,815.6 0,49.4 m -22.8,-49.4 0,38 m -22.8,-38 0,26.6 m -22.8,-26.6 0,19"
         inkscape:connector-curvature="0" />
      <path
         id="path4226"
         style="fill:none;stroke:#a0bcc8;stroke-width:2.29999995"
         d="m 1084.4,815.6 0,62"
         inkscape:connector-curvature="0" />
      <path
         id="path4228"
         style="fill:none;stroke:#a0bcc8;stroke-width:2.29999995"
         d="m 1107.2,815.6 0,49.4 m 22.8,-49.4 0,38 m 22.8,-38 0,26.6 m 22.8,-26.6 0,19"
         inkscape:connector-curvature="0" />
      <path
         id="path4230"
         style="fill:#3b5c6b;stroke:#a0bcc8;stroke-width:2.29999995"
         d="m 1016,815.6 0,62"
         inkscape:connector-curvature="0" />
      <path
         id="path4232"
         style="fill:#3b5c6b;stroke:#a0bcc8;stroke-width:2.29999995"
         d="m 993.2,815.6 0,49.4 m -22.8,-49.4 0,38 m -22.8,-38 0,26.6 m -22.8,-26.6 0,19"
         inkscape:connector-curvature="0" />
      <path
         id="path4234"
         style="fill:none;stroke:#a0bcc8;stroke-width:2.29999995"
         d="m 1595.2,815.6 0,62"
         inkscape:connector-curvature="0" />
      <path
         id="path4236"
         style="fill:none;stroke:#a0bcc8;stroke-width:2.29999995"
         d="m 1618,815.6 0,49.4 m 22.8,-49.4 0,38 m 22.8,-38 0,26.6 m 22.8,-26.6 0,19"
         inkscape:connector-curvature="0" />
      <path
         id="path4238"
         style="fill:#3b5c6b;stroke:#a0bcc8;stroke-width:2.29999995"
         d="m 1526.8,815.6 0,62"
         inkscape:connector-curvature="0" />
      <path
         id="path4240"
         style="fill:#3b5c6b;stroke:#a0bcc8;stroke-width:2.29999995"
         d="m 1504,815.6 0,49.4 m -22.8,-49.4 0,38 m -22.8,-38 0,26.6 m -22.8,-26.6 0,19"
         inkscape:connector-curvature="0" />
      <path
         id="path4242"
         style="fill:none;stroke:#a0bcc8;stroke-width:4.5999999"
         d="M 35.5,896.2 C 142,812.6 281.8,812.6 281.8,812.6 m -260,83.6 C -84.6,812.6 -224.4,812.6 -224.4,812.6 m 770.7,83.6 c 106.4,-83.6 246.3,-83.6 246.3,-83.6 m -260,83.6 C 426.1,812.6 286.3,812.6 286.3,812.6 m 770.8,83.6 c 106.4,-83.6 246.2,-83.6 246.2,-83.6 m -259.9,83.6 C 936.9,812.6 797.1,812.6 797.1,812.6 m 770.8,83.6 c 106.4,-83.6 246.2,-83.6 246.2,-83.6 m -260,83.6 c -106.4,-83.6 -246.2,-83.6 -246.2,-83.6"
         inkscape:connector-curvature="0" />
      <path
         id="path4244"
         d="m 19.3,815 0,92.4 18.8,0 0,-92.4 z m 510.7,0 0,92.4 18.8,0 0,-92.4 z m 510.8,0 0,92.4 18.8,0 0,-92.4 z m 510.8,0 0,92.4 18.8,0 0,-92.4 z"
         inkscape:connector-curvature="0"
         style="fill:#a0bcc8" />
      <path
         id="path4246"
         d="m 1839.3,817.4 0,-10 -2089,0 0,10 z"
         inkscape:connector-curvature="0"
         style="fill:#bfd2da" />
    </g>
    <g
       id="g4300"
       transform="translate(78.89657,500.76407)">
      <rect
         id="rect4276"
         width="190.39999"
         height="25.4"
         x="-625"
         y="7.0999999"
         ry="12.7"
         transform="scale(-1,1)"
         style="fill:#ffffff" />
      <g
         id="g4278"
         transform="translate(401.60687,63.10165)"
         style="fill:#ffffff">
        <rect
           id="rect4280"
           width="156.8"
           height="25.4"
           x="-371.20001"
           y="-17.299999"
           ry="12.7"
           style="fill:#ffffff" />
        <path
           id="path4282"
           d="m -328.5,-38.1 c 7,0 12.7,4.9 12.7,11 0,6.1 -5.7,11 -12.7,11 l 61.1,0 c -7,0 -12.7,-4.9 -12.7,-11 0,-6.1 5.7,-11 12.7,-11 l -61.1,0 z"
           inkscape:connector-curvature="0"
           style="fill:#ffffff" />
        <rect
           id="rect4284"
           width="156.8"
           height="25.4"
           x="-401.60001"
           y="-63.099998"
           ry="12.7"
           style="fill:#ffffff" />
      </g>
      <g
         id="g4286"
         transform="matrix(-1,0,0,1,640.59999,76.003301)"
         style="fill:#ffffff">
        <rect
           id="rect4288"
           width="156.8"
           height="25.4"
           x="-371.20001"
           y="-17.299999"
           ry="12.7"
           style="fill:#ffffff" />
        <path
           id="path4290"
           d="m -328.5,-38.1 c 7,0 12.7,4.9 12.7,11 0,6.1 -5.7,11 -12.7,11 l 61.1,0 c -7,0 -12.7,-4.9 -12.7,-11 0,-6.1 5.7,-11 12.7,-11 l -61.1,0 z"
           inkscape:connector-curvature="0"
           style="fill:#ffffff" />
        <rect
           id="rect4292"
           width="156.8"
           height="25.4"
           x="-401.60001"
           y="-63.099998"
           ry="12.7"
           style="fill:#ffffff" />
      </g>
    </g>
    <g
       id="g4332">
      <g
         style="font-size:40.48907852px;font-style:normal;font-weight:normal;line-height:125%;letter-spacing:0px;word-spacing:0px;fill:#497285;fill-opacity:0.14479639;stroke:none;font-family:Sans"
         id="text2985">
        <path
           d="m 281.76536,728.79575 3.22647,0 c 3.01557,3e-5 5.27199,-0.59044 6.76927,-1.77139 1.49723,-1.202 2.24585,-2.94176 2.24588,-5.2193 -3e-5,-2.29856 -0.63267,-3.99615 -1.89793,-5.09277 -1.24422,-1.09654 -3.2054,-1.64483 -5.88356,-1.64487 l -4.46013,0 0,13.72833 m 22.14246,-7.33864 c -3e-5,4.97681 -1.56055,8.7832 -4.68155,11.41918 -3.09997,2.63603 -7.51791,3.95403 -13.25384,3.95401 l -4.20707,0 0,16.44869 -9.80595,0 0,-46.24612 14.77219,0 c 5.6094,5e-5 9.86918,1.21261 12.77936,3.63769 2.93121,2.40408 4.39683,5.99959 4.39686,10.78655"
           style="font-size:64.78252411px;font-variant:normal;font-weight:bold;font-stretch:normal;baseline-shift:baseline;fill:#497285;font-family:Open Sans;-inkscape-font-specification:Open Sans Bold"
           id="path4339" />
        <path
           d="m 354.67733,730.09267 c -5e-5,7.65498 -1.89797,13.53854 -5.69377,17.65071 -3.79589,4.11217 -9.23661,6.16825 -16.32216,6.16825 -7.08561,0 -12.52633,-2.05608 -16.32216,-6.16825 -3.79586,-4.11217 -5.69378,-10.01682 -5.69378,-17.71398 0,-7.69711 1.89792,-13.57013 5.69378,-17.61907 3.81692,-4.06995 9.27872,-6.10495 16.38542,-6.10499 7.10664,4e-5 12.53681,2.04558 16.29053,6.13662 3.77471,4.09112 5.66209,9.97468 5.66214,17.65071 m -33.75144,0 c -10e-6,5.16659 0.98058,9.05733 2.94178,11.67224 1.96117,2.61493 4.89241,3.92239 8.79373,3.92238 7.82363,1e-5 11.73546,-5.19819 11.7355,-15.59462 -4e-5,-10.41747 -3.89078,-15.62622 -11.67224,-15.62626 -3.90131,4e-5 -6.84309,1.31805 -8.82535,3.95402 -1.9823,2.61495 -2.97343,6.50569 -2.97342,11.67224"
           style="font-size:64.78252411px;font-variant:normal;font-weight:bold;font-stretch:normal;baseline-shift:baseline;fill:#497285;font-family:Open Sans;-inkscape-font-specification:Open Sans Bold"
           id="path4341" />
        <path
           d="m 374.13107,727.5621 3.16321,0 c 3.09992,3e-5 5.38797,-0.51663 6.86416,-1.54997 1.47614,-1.03329 2.21422,-2.65707 2.21425,-4.87134 -3e-5,-2.19313 -0.7592,-3.75364 -2.27751,-4.68155 -1.49728,-0.92784 -3.82751,-1.39178 -6.9907,-1.39182 l -2.97341,0 0,12.49468 m 0,7.97129 0,17.7456 -9.80595,0 0,-46.24612 13.47527,0 c 6.28422,5e-5 10.93413,1.14935 13.94975,3.4479 3.01556,2.27755 4.52335,5.74654 4.52339,10.40696 -4e-5,2.72039 -0.74866,5.14551 -2.24588,7.27538 -1.49728,2.10883 -3.61663,3.76424 -6.35805,4.96624 6.95903,10.39642 11.49296,17.11296 13.6018,20.14964 l -10.88144,0 -11.0396,-17.7456 -5.21929,0"
           style="font-size:64.78252411px;font-variant:normal;font-weight:bold;font-stretch:normal;baseline-shift:baseline;fill:#497285;font-family:Open Sans;-inkscape-font-specification:Open Sans Bold"
           id="path4343" />
        <path
           d="m 424.93221,753.27899 -9.80595,0 0,-38.08504 -12.55794,0 0,-8.16108 34.92183,0 0,8.16108 -12.55794,0 0,38.08504"
           style="font-size:64.78252411px;font-variant:normal;font-weight:bold;font-stretch:normal;baseline-shift:baseline;fill:#497285;font-family:Open Sans;-inkscape-font-specification:Open Sans Bold"
           id="path4345" />
        <path
           d="m 454.31842,753.27899 -9.64779,0 0,-46.24612 26.50769,0 0,8.03455 -16.8599,0 0,11.9253 15.68952,0 0,8.00292 -15.68952,0 0,18.28335"
           style="font-size:64.78252411px;font-variant:normal;font-weight:bold;font-stretch:normal;baseline-shift:baseline;fill:#497285;font-family:Open Sans;-inkscape-font-specification:Open Sans Bold"
           id="path4347" />
        <path
           d="m 522.20089,730.09267 c -5e-5,7.65498 -1.89797,13.53854 -5.69378,17.65071 -3.79588,4.11217 -9.2366,6.16825 -16.32215,6.16825 -7.08561,0 -12.52633,-2.05608 -16.32216,-6.16825 -3.79586,-4.11217 -5.69378,-10.01682 -5.69378,-17.71398 0,-7.69711 1.89792,-13.57013 5.69378,-17.61907 3.81692,-4.06995 9.27872,-6.10495 16.38542,-6.10499 7.10664,4e-5 12.53681,2.04558 16.29053,6.13662 3.77471,4.09112 5.66209,9.97468 5.66214,17.65071 m -33.75144,0 c -1e-5,5.16659 0.98058,9.05733 2.94178,11.67224 1.96117,2.61493 4.89241,3.92239 8.79373,3.92238 7.82363,1e-5 11.73546,-5.19819 11.7355,-15.59462 -4e-5,-10.41747 -3.89078,-15.62622 -11.67224,-15.62626 -3.90131,4e-5 -6.8431,1.31805 -8.82535,3.95402 -1.9823,2.61495 -2.97343,6.50569 -2.97342,11.67224"
           style="font-size:64.78252411px;font-variant:normal;font-weight:bold;font-stretch:normal;baseline-shift:baseline;fill:#497285;font-family:Open Sans;-inkscape-font-specification:Open Sans Bold"
           id="path4349" />
        <path
           d="m 531.84867,753.27899 0,-46.24612 9.80595,0 0,38.14831 18.75783,0 0,8.09781 -28.56378,0"
           style="font-size:64.78252411px;font-variant:normal;font-weight:bold;font-stretch:normal;baseline-shift:baseline;fill:#497285;font-family:Open Sans;-inkscape-font-specification:Open Sans Bold"
           id="path4351" />
        <path
           d="m 568.41537,753.27899 0,-46.24612 9.80595,0 0,46.24612 -9.80595,0"
           style="font-size:64.78252411px;font-variant:normal;font-weight:bold;font-stretch:normal;baseline-shift:baseline;fill:#497285;font-family:Open Sans;-inkscape-font-specification:Open Sans Bold"
           id="path4353" />
        <path
           d="m 631.90098,730.09267 c -5e-5,7.65498 -1.89797,13.53854 -5.69378,17.65071 -3.79589,4.11217 -9.2366,6.16825 -16.32216,6.16825 -7.0856,0 -12.52632,-2.05608 -16.32216,-6.16825 -3.79585,-4.11217 -5.69378,-10.01682 -5.69377,-17.71398 -10e-6,-7.69711 1.89792,-13.57013 5.69377,-17.61907 3.81693,-4.06995 9.27873,-6.10495 16.38543,-6.10499 7.10664,4e-5 12.53681,2.04558 16.29053,6.13662 3.77471,4.09112 5.66209,9.97468 5.66214,17.65071 m -33.75144,0 c -2e-5,5.16659 0.98058,9.05733 2.94178,11.67224 1.96117,2.61493 4.89241,3.92239 8.79372,3.92238 7.82364,1e-5 11.73547,-5.19819 11.73551,-15.59462 -4e-5,-10.41747 -3.89078,-15.62622 -11.67224,-15.62626 -3.90132,4e-5 -6.8431,1.31805 -8.82536,3.95402 -1.98229,2.61495 -2.97343,6.50569 -2.97341,11.67224"
           style="font-size:64.78252411px;font-variant:normal;font-weight:bold;font-stretch:normal;baseline-shift:baseline;fill:#497285;font-family:Open Sans;-inkscape-font-specification:Open Sans Bold"
           id="path4355" />
        <path
           d="m 685.67553,740.43636 c -3e-5,4.17545 -1.50783,7.46518 -4.52339,9.86922 -2.99453,2.40403 -7.16996,3.60605 -12.52631,3.60605 -4.93461,0 -9.29984,-0.92787 -13.09568,-2.78362 l 0,-9.11004 c 3.12103,1.39182 5.75703,2.37241 7.90802,2.94178 2.17206,0.56939 4.15433,0.85408 5.94684,0.85407 2.15096,1e-5 3.79583,-0.41121 4.9346,-1.23365 1.15982,-0.82243 1.73974,-2.04553 1.73977,-3.66933 -3e-5,-0.90677 -0.25308,-1.70812 -0.75917,-2.40404 -0.50614,-0.71697 -1.25476,-1.40234 -2.24588,-2.05608 -0.97007,-0.65371 -2.96289,-1.69757 -5.97847,-3.13158 -2.82581,-1.32852 -4.94516,-2.60435 -6.35805,-3.82748 -1.4129,-1.22308 -2.54112,-2.64653 -3.38463,-4.27033 -0.84353,-1.62375 -1.26529,-3.52168 -1.26529,-5.69378 0,-4.09105 1.38127,-7.30697 4.14381,-9.64779 2.78361,-2.34073 6.62164,-3.51111 11.51408,-3.51116 2.40402,5e-5 4.69207,0.28473 6.86416,0.85407 2.19313,0.56942 4.48119,1.37076 6.86417,2.40403 l -3.16321,7.62334 c -2.46733,-1.01219 -4.51287,-1.71864 -6.13663,-2.11935 -1.60271,-0.40064 -3.18431,-0.60097 -4.74481,-0.60101 -1.85577,4e-5 -3.27921,0.43234 -4.27033,1.29691 -0.99116,0.86465 -1.48672,1.99286 -1.48671,3.38464 -10e-6,0.86464 0.20032,1.62381 0.60101,2.27751 0.40066,0.63267 1.0333,1.25477 1.89792,1.86629 0.88569,0.5905 2.96286,1.66599 6.23153,3.22648 4.32302,2.06665 7.28589,4.14382 8.88861,6.23152 1.60266,2.06665 2.40401,4.60776 2.40404,7.62333"
           style="font-size:64.78252411px;font-variant:normal;font-weight:bold;font-stretch:normal;baseline-shift:baseline;fill:#497285;font-family:Open Sans;-inkscape-font-specification:Open Sans Bold"
           id="path4357" />
        <path
           d="m 711.89854,753.27899 -9.80595,0 0,-38.08504 -12.55794,0 0,-8.16108 34.92183,0 0,8.16108 -12.55794,0 0,38.08504"
           style="font-size:64.78252411px;font-variant:normal;font-weight:bold;font-stretch:normal;baseline-shift:baseline;fill:#497285;font-family:Open Sans;-inkscape-font-specification:Open Sans Bold"
           id="path4359" />
        <path
           d="m 759.94768,753.27899 -3.353,-11.00797 -16.85991,0 -3.353,11.00797 -10.56512,0 16.32216,-46.43591 11.98856,0 16.38543,46.43591 -10.56512,0 m -5.69378,-19.23231 c -3.09997,-9.97462 -4.85028,-15.61567 -5.25093,-16.92317 -0.3796,-1.30742 -0.65375,-2.34074 -0.82243,-3.09994 -0.69593,2.6993 -2.68875,9.37367 -5.97847,20.02311 l 12.05183,0"
           style="font-size:64.78252411px;font-variant:normal;font-weight:bold;font-stretch:normal;baseline-shift:baseline;fill:#497285;font-family:Open Sans;-inkscape-font-specification:Open Sans Bold"
           id="path4361" />
        <path
           d="m 794.14198,753.27899 -9.80595,0 0,-38.08504 -12.55794,0 0,-8.16108 34.92183,0 0,8.16108 -12.55794,0 0,38.08504"
           style="font-size:64.78252411px;font-variant:normal;font-weight:bold;font-stretch:normal;baseline-shift:baseline;fill:#497285;font-family:Open Sans;-inkscape-font-specification:Open Sans Bold"
           id="path4363" />
        <path
           d="m 813.88042,753.27899 0,-46.24612 9.80595,0 0,46.24612 -9.80595,0"
           style="font-size:64.78252411px;font-variant:normal;font-weight:bold;font-stretch:normal;baseline-shift:baseline;fill:#497285;font-family:Open Sans;-inkscape-font-specification:Open Sans Bold"
           id="path4365" />
        <path
           d="m 877.36604,730.09267 c -5e-5,7.65498 -1.89797,13.53854 -5.69378,17.65071 -3.79589,4.11217 -9.2366,6.16825 -16.32216,6.16825 -7.08561,0 -12.52632,-2.05608 -16.32216,-6.16825 -3.79585,-4.11217 -5.69378,-10.01682 -5.69377,-17.71398 -10e-6,-7.69711 1.89792,-13.57013 5.69377,-17.61907 3.81693,-4.06995 9.27873,-6.10495 16.38543,-6.10499 7.10664,4e-5 12.53681,2.04558 16.29052,6.13662 3.77472,4.09112 5.6621,9.97468 5.66215,17.65071 m -33.75144,0 c -2e-5,5.16659 0.98057,9.05733 2.94178,11.67224 1.96117,2.61493 4.89241,3.92239 8.79372,3.92238 7.82364,1e-5 11.73547,-5.19819 11.73551,-15.59462 -4e-5,-10.41747 -3.89078,-15.62622 -11.67224,-15.62626 -3.90132,4e-5 -6.8431,1.31805 -8.82536,3.95402 -1.98229,2.61495 -2.97343,6.50569 -2.97341,11.67224"
           style="font-size:64.78252411px;font-variant:normal;font-weight:bold;font-stretch:normal;baseline-shift:baseline;fill:#497285;font-family:Open Sans;-inkscape-font-specification:Open Sans Bold"
           id="path4367" />
        <path
           d="m 928.04061,753.27899 -12.46304,0 -20.11802,-34.98509 -0.28468,0 c 0.40065,6.17883 0.60099,10.58623 0.60101,13.22221 l 0,21.76288 -8.76209,0 0,-46.24612 12.36814,0 20.08638,34.63714 0.22143,0 c -0.31636,-6.01008 -0.47452,-10.25932 -0.47448,-12.74773 l 0,-21.88941 8.82535,0 0,46.24612"
           style="font-size:64.78252411px;font-variant:normal;font-weight:bold;font-stretch:normal;baseline-shift:baseline;fill:#497285;font-family:Open Sans;-inkscape-font-specification:Open Sans Bold"
           id="path4369" />
      </g>
      <g
         style="font-size:40.48907852px;font-style:normal;font-weight:normal;line-height:125%;letter-spacing:0px;word-spacing:0px;fill:#497285;fill-opacity:0.30769234;stroke:none;font-family:Sans"
         id="text2985-1">
        <path
           d="m 444.50195,769.60632 6.11328,0 -9.70703,28.55469 -6.60156,0 -9.6875,-28.55469 6.11328,0 5.3711,16.99219 c 0.29946,1.00262 0.60545,2.17449 0.91796,3.51563 0.32551,1.32813 0.52734,2.25261 0.60547,2.77343 0.14322,-1.19791 0.6315,-3.29426 1.46485,-6.28906 l 5.41015,-16.99219"
           style="font-size:40px;font-variant:normal;font-weight:bold;font-stretch:normal;baseline-shift:baseline;fill:#497285;font-family:Open Sans;-inkscape-font-specification:Open Sans Bold"
           id="path4372" />
        <path
           d="m 454.22852,798.16101 0,-28.55469 6.05468,0 0,23.55469 11.58203,0 0,5 -17.63671,0"
           style="font-size:40px;font-variant:normal;font-weight:bold;font-stretch:normal;baseline-shift:baseline;fill:#497285;font-family:Open Sans;-inkscape-font-specification:Open Sans Bold"
           id="path4374" />
        <path
           d="m 494.28711,798.16101 -2.07031,-6.79687 -10.41016,0 -2.07031,6.79687 -6.52344,0 10.07813,-28.67187 7.40234,0 10.11719,28.67187 -6.52344,0 m -3.51563,-11.875 c -1.91407,-6.15884 -2.9948,-9.6419 -3.24218,-10.44922 -0.23439,-0.80727 -0.40366,-1.44529 -0.50782,-1.91406 -0.4297,1.66669 -1.66016,5.78778 -3.6914,12.36328 l 7.4414,0"
           style="font-size:40px;font-variant:normal;font-weight:bold;font-stretch:normal;baseline-shift:baseline;fill:#497285;font-family:Open Sans;-inkscape-font-specification:Open Sans Bold"
           id="path4376" />
        <path
           d="m 528.07617,783.61023 c -3e-5,4.70053 -1.34117,8.30079 -4.02344,10.80078 -2.66929,2.5 -6.52996,3.75 -11.58203,3.75 l -8.08593,0 0,-28.55469 8.96484,0 c 4.66144,3e-5 8.28123,1.2305 10.85937,3.69141 2.5781,2.46096 3.86716,5.89846 3.86719,10.3125 m -6.28906,0.15625 c -2e-5,-6.13279 -2.70835,-9.1992 -8.125,-9.19922 l -3.22266,0 0,18.59375 2.59766,0 c 5.83331,10e-6 8.74998,-3.1315 8.75,-9.39453"
           style="font-size:40px;font-variant:normal;font-weight:bold;font-stretch:normal;baseline-shift:baseline;fill:#497285;font-family:Open Sans;-inkscape-font-specification:Open Sans Bold"
           id="path4378" />
        <path
           d="m 533.99414,798.16101 0,-28.55469 6.05469,0 0,28.55469 -6.05469,0"
           style="font-size:40px;font-variant:normal;font-weight:bold;font-stretch:normal;baseline-shift:baseline;fill:#497285;font-family:Open Sans;-inkscape-font-specification:Open Sans Bold"
           id="path4380" />
        <path
           d="m 559.36523,798.16101 -6.875,-22.40234 -0.17578,0 c 0.24739,4.55731 0.37109,7.59767 0.3711,9.12109 l 0,13.28125 -5.41016,0 0,-28.55469 8.24219,0 6.75781,21.83594 0.11719,0 7.16797,-21.83594 8.24218,0 0,28.55469 -5.64453,0 0,-13.51562 c -3e-5,-0.63801 0.006,-1.37369 0.0195,-2.20704 0.026,-0.83331 0.11716,-3.04685 0.27344,-6.64062 l -0.17578,0 -7.36328,22.36328 -5.54688,0"
           style="font-size:40px;font-variant:normal;font-weight:bold;font-stretch:normal;baseline-shift:baseline;fill:#497285;font-family:Open Sans;-inkscape-font-specification:Open Sans Bold"
           id="path4382" />
        <path
           d="m 585.00977,798.16101 0,-28.55469 6.05468,0 0,28.55469 -6.05468,0"
           style="font-size:40px;font-variant:normal;font-weight:bold;font-stretch:normal;baseline-shift:baseline;fill:#497285;font-family:Open Sans;-inkscape-font-specification:Open Sans Bold"
           id="path4384" />
        <path
           d="m 604.3457,782.2821 1.95313,0 c 1.91405,2e-5 3.32681,-0.31899 4.23828,-0.95703 0.91144,-0.638 1.36717,-1.6406 1.36719,-3.00781 -2e-5,-1.35414 -0.46877,-2.31769 -1.40625,-2.89062 -0.9245,-0.5729 -2.3633,-0.85936 -4.31641,-0.85938 l -1.83594,0 0,7.71484 m 0,4.92188 0,10.95703 -6.05468,0 0,-28.55469 8.32031,0 c 3.88019,3e-5 6.75128,0.70967 8.61328,2.12891 1.86196,1.40627 2.79294,3.5482 2.79297,6.42578 -3e-5,1.67971 -0.46226,3.1771 -1.38672,4.49219 -0.9245,1.3021 -2.23309,2.32423 -3.92578,3.0664 4.29685,6.41928 7.09633,10.56641 8.39844,12.44141 l -6.71875,0 -6.81641,-10.95703 -3.22266,0"
           style="font-size:40px;font-variant:normal;font-weight:bold;font-stretch:normal;baseline-shift:baseline;fill:#497285;font-family:Open Sans;-inkscape-font-specification:Open Sans Bold"
           id="path4386" />
        <path
           d="m 651.94336,790.23132 c -2e-5,2.57813 -0.93101,4.60938 -2.79297,6.09375 -1.84897,1.48438 -4.4271,2.22657 -7.73437,2.22657 -3.04689,0 -5.7422,-0.57292 -8.08594,-1.71875 l 0,-5.625 c 1.92708,0.85938 3.55468,1.46484 4.88281,1.8164 1.34114,0.35157 2.5651,0.52735 3.67188,0.52735 1.32811,0 2.34373,-0.25391 3.04687,-0.76172 0.71613,-0.50781 1.0742,-1.26302 1.07422,-2.26563 -2e-5,-0.55989 -0.15626,-1.05468 -0.46875,-1.48437 -0.31251,-0.4427 -0.77475,-0.86588 -1.38672,-1.26953 -0.59897,-0.40364 -1.82944,-1.04817 -3.69141,-1.9336 -1.74479,-0.8203 -3.05339,-1.60806 -3.92578,-2.36328 -0.8724,-0.75519 -1.56901,-1.6341 -2.08984,-2.63672 -0.52084,-1.00258 -0.78125,-2.17446 -0.78125,-3.51562 0,-2.52602 0.85286,-4.5117 2.55859,-5.95703 1.71875,-1.44529 4.08854,-2.16794 7.10938,-2.16797 1.48436,3e-5 2.89712,0.17581 4.23828,0.52734 1.35415,0.35159 2.76691,0.84638 4.23828,1.48438 l -1.95312,4.70703 c -1.52346,-0.62498 -2.78648,-1.06118 -3.78907,-1.3086 -0.98959,-0.24737 -1.96616,-0.37107 -2.92968,-0.37109 -1.14585,2e-5 -2.02475,0.26695 -2.63672,0.80078 -0.61199,0.53388 -0.91798,1.23049 -0.91797,2.08984 -10e-6,0.53388 0.12369,1.00263 0.37109,1.40625 0.24739,0.39065 0.63801,0.77476 1.17188,1.15235 0.54686,0.3646 1.82941,1.02866 3.84765,1.99219 2.66926,1.27605 4.49868,2.5586 5.48828,3.84765 0.98957,1.27606 1.48436,2.84506 1.48438,4.70703"
           style="font-size:40px;font-variant:normal;font-weight:bold;font-stretch:normal;baseline-shift:baseline;fill:#497285;font-family:Open Sans;-inkscape-font-specification:Open Sans Bold"
           id="path4388" />
        <path
           d="m 680.51758,798.16101 -6.03516,0 0,-12.32422 -11.30859,0 0,12.32422 -6.05469,0 0,-28.55469 6.05469,0 0,11.19141 11.30859,0 0,-11.19141 6.03516,0 0,28.55469"
           style="font-size:40px;font-variant:normal;font-weight:bold;font-stretch:normal;baseline-shift:baseline;fill:#497285;font-family:Open Sans;-inkscape-font-specification:Open Sans Bold"
           id="path4390" />
        <path
           d="m 704.18945,798.16101 -16.44531,0 0,-28.55469 16.44531,0 0,4.96094 -10.39062,0 0,6.26953 9.66797,0 0,4.96094 -9.66797,0 0,7.36328 10.39062,0 0,5"
           style="font-size:40px;font-variant:normal;font-weight:bold;font-stretch:normal;baseline-shift:baseline;fill:#497285;font-family:Open Sans;-inkscape-font-specification:Open Sans Bold"
           id="path4392" />
        <path
           d="m 716.2207,783.04382 1.99219,0 c 1.86197,2e-5 3.25519,-0.36456 4.17969,-1.09375 0.92446,-0.74217 1.3867,-1.81638 1.38672,-3.22265 -2e-5,-1.41925 -0.39064,-2.46743 -1.17188,-3.14453 -0.76824,-0.67706 -1.97918,-1.01561 -3.63281,-1.01563 l -2.75391,0 0,8.47656 m 13.67188,-4.53125 c -3e-5,3.07294 -0.96357,5.42319 -2.89063,7.05078 -1.91408,1.62762 -4.64194,2.44142 -8.18359,2.44141 l -2.59766,0 0,10.15625 -6.05468,0 0,-28.55469 9.12109,0 c 3.46352,3e-5 6.09373,0.74873 7.89062,2.2461 1.80988,1.4844 2.71482,3.70445 2.71485,6.66015"
           style="font-size:40px;font-variant:normal;font-weight:bold;font-stretch:normal;baseline-shift:baseline;fill:#497285;font-family:Open Sans;-inkscape-font-specification:Open Sans Bold"
           id="path4394" />
        <path
           d="m 751.76758,798.16101 -16.44531,0 0,-28.55469 16.44531,0 0,4.96094 -10.39063,0 0,6.26953 9.66797,0 0,4.96094 -9.66797,0 0,7.36328 10.39063,0 0,5"
           style="font-size:40px;font-variant:normal;font-weight:bold;font-stretch:normal;baseline-shift:baseline;fill:#497285;font-family:Open Sans;-inkscape-font-specification:Open Sans Bold"
           id="path4396" />
        <path
           d="m 757.74414,798.16101 0,-28.55469 6.05469,0 0,23.55469 11.58203,0 0,5 -17.63672,0"
           style="font-size:40px;font-variant:normal;font-weight:bold;font-stretch:normal;baseline-shift:baseline;fill:#497285;font-family:Open Sans;-inkscape-font-specification:Open Sans Bold"
           id="path4398" />
      </g>
    </g>
  </g>
</svg>
