<svg xmlns:svg="http://www.w3.org/2000/svg" xmlns="http://www.w3.org/2000/svg" version="1.1" width="1042.2" height="84.1"><rect transform="scale(-1,1)" ry="12.7" y="7.1" x="-625" height="25.4" width="190.4" fill="#fff"/><g transform="translate(401.60687,63.10165)" fill="#fff"><rect ry="12.7" y="-17.3" x="-371.2" height="25.4" width="156.8" fill="#fff"/><path d="m-328.5-38.1c7 0 12.7 4.9 12.7 11 0 6.1-5.7 11-12.7 11l61.1 0c-7 0-12.7-4.9-12.7-11 0-6.1 5.7-11 12.7-11l-61.1 0z" fill="#fff"/><rect ry="12.7" y="-63.1" x="-401.6" height="25.4" width="156.8" fill="#fff"/></g><g transform="matrix(-1,0,0,1,640.59999,76.003301)" fill="#fff"><rect ry="12.7" y="-17.3" x="-371.2" height="25.4" width="156.8" fill="#fff"/><path d="m-328.5-38.1c7 0 12.7 4.9 12.7 11 0 6.1-5.7 11-12.7 11l61.1 0c-7 0-12.7-4.9-12.7-11 0-6.1 5.7-11 12.7-11l-61.1 0z" fill="#fff"/><rect ry="12.7" y="-63.1" x="-401.6" height="25.4" width="156.8" fill="#fff"/></g></svg>