<svg xmlns:svg="http://www.w3.org/2000/svg" xmlns="http://www.w3.org/2000/svg" version="1.1" viewBox="0 0 2738.2 155.3" height="155.3" width="2738.2"><g transform="matrix(0.79925598,0,0,0.79925598,-2.2066393e-8,-6.1677839e-6)"><rect width="13.8" height="153.8" x="-700.4" y="11.2" ry="0.5" transform="scale(-1,1)" fill="#0f171b"/><path d="m561.7 161.9c8.8 0 15.9 7.2 15.9 15.9 0 8.8-7.1 15.9-15.9 15.9-8.8 0-15.9-7.2-15.9-16 0-8.8 7.2-15.9 15.9-15.9z" fill="#0d1417"/><path d="m561.6 170.9c3.8 0 6.9 3.1 6.9 6.9 0 3.8-3.1 6.9-6.9 6.9-3.8 0-6.9-3.1-6.9-6.9 0-3.8 3.1-6.9 6.9-6.9z" fill="#253841"/><path d="m594.3 161.9c8.8 0 15.9 7.2 15.9 15.9 0 8.8-7.1 15.9-15.9 15.9-8.8 0-15.9-7.2-15.9-16 0-8.8 7.2-15.9 15.9-15.9z" fill="#0f171b"/><path d="m594.3 170.9c3.8 0 6.9 3.1 6.9 6.9 0 3.8-3.1 6.9-6.9 6.9-3.8 0-6.9-3.1-6.9-6.9 0-3.8 3.1-6.9 6.9-6.9z" fill="#253841"/><path d="m626.9 161.9c8.8 0 15.9 7.2 15.9 15.9 0 8.8-7.1 15.9-15.9 15.9-8.8 0-15.9-7.2-15.9-16 0-8.8 7.2-15.9 15.9-15.9z" fill="#0d1417"/><path d="m626.9 170.9c3.8 0 6.9 3.1 6.9 6.9 0 3.8-3.1 6.9-6.9 6.9-3.8 0-6.9-3.1-6.9-6.9 0-3.8 3.1-6.9 6.9-6.9z" fill="#253841"/><path d="m529 161.9c8.8 0 15.9 7.2 15.9 15.9 0 8.8-7.1 15.9-15.9 15.9-8.8 0-15.9-7.2-15.9-16 0-8.8 7.2-15.9 15.9-15.9z" fill="#0f171b"/><path d="m529 170.9c3.8 0 6.9 3.1 6.9 6.9 0 3.8-3.1 6.9-6.9 6.9-3.8 0-6.9-3.1-6.9-6.9 0-3.8 3.1-6.9 6.9-6.9z" fill="#253841"/><rect width="104.3" height="9.2" x="-630.1" y="173.2" ry="4.6" transform="scale(-1,1)" fill="#141e23"/><path d="m273.9 161.9c8.8 0 15.9 7.2 15.9 15.9 0 8.8-7.1 15.9-15.9 15.9-8.8 0-15.9-7.2-15.9-16 0-8.8 7.2-15.9 15.9-15.9z" fill="#0d1417"/><path d="m273.9 170.9c3.8 0 6.9 3.1 6.9 6.9 0 3.8-3.1 6.9-6.9 6.9-3.8 0-6.9-3.1-6.9-6.9 0-3.8 3.1-6.9 6.9-6.9z" fill="#253841"/><path d="m306.5 161.9c8.8 0 15.9 7.2 15.9 15.9 0 8.8-7.1 15.9-15.9 15.9-8.8 0-15.9-7.2-15.9-16 0-8.8 7.2-15.9 15.9-15.9z" fill="#0f171b"/><path d="m306.5 170.9c3.8 0 6.9 3.1 6.9 6.9 0 3.8-3.1 6.9-6.9 6.9-3.8 0-6.9-3.1-6.9-6.9 0-3.8 3.1-6.9 6.9-6.9z" fill="#253841"/><path d="m339.2 161.9c8.8 0 15.9 7.2 15.9 15.9 0 8.8-7.1 15.9-15.9 15.9-8.8 0-15.9-7.2-15.9-16 0-8.8 7.2-15.9 15.9-15.9z" fill="#0d1417"/><path d="m339.2 170.9c3.8 0 6.9 3.1 6.9 6.9 0 3.8-3.1 6.9-6.9 6.9-3.8 0-6.9-3.1-6.9-6.9 0-3.8 3.1-6.9 6.9-6.9z" fill="#253841"/><path d="m241.3 161.9c8.8 0 15.9 7.2 15.9 15.9 0 8.8-7.1 15.9-15.9 15.9-8.8 0-15.9-7.2-15.9-16 0-8.8 7.2-15.9 15.9-15.9z" fill="#0f171b"/><path d="m241.2 170.9c3.8 0 6.9 3.1 6.9 6.9 0 3.8-3.1 6.9-6.9 6.9-3.8 0-6.9-3.1-6.9-6.9 0-3.8 3.1-6.9 6.9-6.9z" fill="#253841"/><rect width="104.3" height="9.2" x="-342.3" y="173.2" ry="4.6" transform="scale(-1,1)" fill="#141e23"/><path d="m679.9 0.4-467.5 0C141.5 0.9 14.4 99.5 14.4 140.3c0 2.9 3.5 6.7 7.8 6.7l657.7 0c4.3 0 7.8-3 7.8-6.7l0-133.3c0-3.7-3.5-6.7-7.8-6.7z" fill="#87a3b1"/><path d="m65.2 72.5c2.3-2 4.5-3.9 6.9-5.9 4.8-3.8 9.7-7.7 14.8-11.4 5.1-3.7 10.3-7.4 15.6-10.9 5.3-3.5 10.7-6.9 16.2-10.2 2.7-1.6 5.5-3.2 8.2-4.8 2-1.2 4.1-2.3 6.1-3.4l130 0c3.8 0 1.9 2.3 1.9 2.3 0 0-21.9 30.6-38.2 41.3-2.3 1.5-5.1 2.4-7.9 2.9-50.1 8.9-153.6 0-153.6 0z" fill="#b5ced6"/><path d="m687.7 40.5-339.3 0 0 45.1 339.3 0zm-9.5 98.9c5.3 0 9.5 4.3 9.5 9.5l0 20c0 5.3-4.3 9.5-9.5 9.5l-56.8 0c-0.8-8.2-7.7-14.5-16.1-14.5l-91 0c-8.4 0-15.3 6.3-16.1 14.5l-164.6 0c-0.8-8.2-7.7-14.5-16.1-14.5l-91 0c-8.4 0-15.3 6.3-16.1 14.5l-174 0c-5.3 0-7.5-4.6-9.5-9.5l-9-21.8c0 0 4.3-7.7 9.5-7.7l650.8 0z" fill="#283b45"/><path d="m687.7 35-360.7 0c-8.9-0.7-73.9 99.6-61.4 99.6l422.1 0 0 14.2-668.3 0c-15 0-22.8-0.8-18-12.1 10.5-23.3 30.4-36.4 30.4-36.4 0 0 3.1-2.5 10.7-2.5l178.5-1.2c11 1.8 58.9-75.4 65.8-75.9l401 0z" fill="#445a66"/><rect width="77.6" height="45.1" x="-504.4" y="40.5" ry="0" transform="scale(-1,1)" fill="#456576"/><rect width="77.6" height="45.1" x="-592.5" y="40.5" ry="0" transform="scale(-1,1)" fill="#456576"/><rect width="44.7" height="45.1" x="-662.2" y="40.5" ry="0" transform="scale(-1,1)" fill="#456576"/><path d="m418 40.5-73.2 0c-3.7 0-5.6 2.7-6.7 5.7l-12.7 33.7c-2.3 6.2 3 5.7 6.7 5.7l85.9 0z" fill="#456576"/><rect width="13.8" height="153.8" x="2725.5" y="11.7" ry="0.5" fill="#0f171b"/><path d="m1209.2 162.2c-8.8 0-15.9 7.2-15.9 15.9 0 8.8 7.1 15.9 15.9 15.9 8.8 0 15.9-7.2 15.9-16 0-8.8-7.2-15.9-15.9-15.9z" fill="#0d1417"/><path d="m1209.2 171.2c-3.8 0-6.9 3.1-6.9 6.9 0 3.8 3.1 6.9 6.9 6.9 3.8 0 6.9-3.1 6.9-6.9 0-3.8-3.1-6.9-6.9-6.9z" fill="#253841"/><path d="m1176.5 162.2c-8.8 0-15.9 7.2-15.9 15.9 0 8.8 7.1 15.9 15.9 15.9 8.8 0 15.9-7.2 15.9-16 0-8.8-7.2-15.9-15.9-15.9z" fill="#0f171b"/><path d="m1176.6 171.2c-3.8 0-6.9 3.1-6.9 6.9 0 3.8 3.1 6.9 6.9 6.9 3.8 0 6.9-3.1 6.9-6.9 0-3.8-3.1-6.9-6.9-6.9z" fill="#253841"/><path d="m1143.9 162.2c-8.8 0-15.9 7.2-15.9 15.9 0 8.8 7.1 15.9 15.9 15.9 8.8 0 15.9-7.2 15.9-16 0-8.8-7.2-15.9-15.9-15.9z" fill="#0d1417"/><path d="m1143.9 171.2c-3.8 0-6.9 3.1-6.9 6.9 0 3.8 3.1 6.9 6.9 6.9 3.8 0 6.9-3.1 6.9-6.9 0-3.8-3.1-6.9-6.9-6.9z" fill="#253841"/><path d="m1241.8 162.2c-8.8 0-15.9 7.2-15.9 15.9 0 8.8 7.1 15.9 15.9 15.9 8.8 0 15.9-7.2 15.9-16 0-8.8-7.2-15.9-15.9-15.9z" fill="#0f171b"/><path d="m1241.8 171.2c-3.8 0-6.9 3.1-6.9 6.9 0 3.8 3.1 6.9 6.9 6.9 3.8 0 6.9-3.1 6.9-6.9 0-3.8-3.1-6.9-6.9-6.9z" fill="#253841"/><path d="m1145.3 173.6 95.1 0c2.5 0 4.6 2 4.6 4.6 0 2.5-2 4.6-4.6 4.6l-95.1 0c-2.5 0-4.6-2-4.6-4.6 0-2.5 2-4.6 4.6-4.6z" fill="#141e23"/><path d="m921.6 162.2c-8.8 0-15.9 7.2-15.9 15.9 0 8.8 7.1 15.9 15.9 15.9 8.8 0 15.9-7.2 15.9-16 0-8.8-7.2-15.9-15.9-15.9z" fill="#0d1417"/><path d="m921.6 171.2c-3.8 0-6.9 3.1-6.9 6.9 0 3.8 3.1 6.9 6.9 6.9 3.8 0 6.9-3.1 6.9-6.9 0-3.8-3.1-6.9-6.9-6.9z" fill="#253841"/><path d="m889 162.2c-8.8 0-15.9 7.2-15.9 15.9 0 8.8 7.1 15.9 15.9 15.9 8.8 0 15.9-7.2 15.9-16 0-8.8-7.2-15.9-15.9-15.9z" fill="#0f171b"/><path d="m889 171.2c-3.8 0-6.9 3.1-6.9 6.9 0 3.8 3.1 6.9 6.9 6.9 3.8 0 6.9-3.1 6.9-6.9 0-3.8-3.1-6.9-6.9-6.9z" fill="#253841"/><path d="m856.3 162.2c-8.8 0-15.9 7.2-15.9 15.9 0 8.8 7.1 15.9 15.9 15.9 8.8 0 15.9-7.2 15.9-16 0-8.8-7.2-15.9-15.9-15.9z" fill="#0d1417"/><path d="m856.3 171.2c-3.8 0-6.9 3.1-6.9 6.9 0 3.8 3.1 6.9 6.9 6.9 3.8 0 6.9-3.1 6.9-6.9 0-3.8-3.1-6.9-6.9-6.9z" fill="#253841"/><path d="m954.3 162.2c-8.8 0-15.9 7.2-15.9 15.9 0 8.8 7.1 15.9 15.9 15.9 8.8 0 15.9-7.2 15.9-16 0-8.8-7.2-15.9-15.9-15.9z" fill="#0f171b"/><path d="m954.3 171.2c-3.8 0-6.9 3.1-6.9 6.9 0 3.8 3.1 6.9 6.9 6.9 3.8 0 6.9-3.1 6.9-6.9 0-3.8-3.1-6.9-6.9-6.9z" fill="#253841"/><path d="m857.8 173.6 95.1 0c2.5 0 4.6 2 4.6 4.6 0 2.5-2 4.6-4.6 4.6l-95.1 0c-2.5 0-4.6-2-4.6-4.6 0-2.5 2-4.6 4.6-4.6z" fill="#141e23"/><path d="m1890.1 162.2c-8.8 0-15.9 7.2-15.9 15.9 0 8.8 7.1 15.9 15.9 15.9 8.8 0 15.9-7.2 15.9-16 0-8.8-7.2-15.9-15.9-15.9z" fill="#0d1417"/><path d="m1890.1 171.2c-3.8 0-6.9 3.1-6.9 6.9 0 3.8 3.1 6.9 6.9 6.9 3.8 0 6.9-3.1 6.9-6.9 0-3.8-3.1-6.9-6.9-6.9z" fill="#253841"/><path d="m1857.4 162.2c-8.8 0-15.9 7.2-15.9 15.9 0 8.8 7.1 15.9 15.9 15.9 8.8 0 15.9-7.2 15.9-16 0-8.8-7.2-15.9-15.9-15.9z" fill="#0f171b"/><path d="m1857.5 171.2c-3.8 0-6.9 3.1-6.9 6.9 0 3.8 3.1 6.9 6.9 6.9 3.8 0 6.9-3.1 6.9-6.9 0-3.8-3.1-6.9-6.9-6.9z" fill="#253841"/><path d="m1824.8 162.2c-8.8 0-15.9 7.2-15.9 15.9 0 8.8 7.1 15.9 15.9 15.9 8.8 0 15.9-7.2 15.9-16 0-8.8-7.2-15.9-15.9-15.9z" fill="#0d1417"/><path d="m1824.8 171.2c-3.8 0-6.9 3.1-6.9 6.9 0 3.8 3.1 6.9 6.9 6.9 3.8 0 6.9-3.1 6.9-6.9 0-3.8-3.1-6.9-6.9-6.9z" fill="#253841"/><path d="m1922.7 162.2c-8.8 0-15.9 7.2-15.9 15.9 0 8.8 7.1 15.9 15.9 15.9 8.8 0 15.9-7.2 15.9-16 0-8.8-7.2-15.9-15.9-15.9z" fill="#0f171b"/><path d="m1922.8 171.2c-3.8 0-6.9 3.1-6.9 6.9 0 3.8 3.1 6.9 6.9 6.9 3.8 0 6.9-3.1 6.9-6.9 0-3.8-3.1-6.9-6.9-6.9z" fill="#253841"/><path d="m1826.2 173.6 95.1 0c2.5 0 4.6 2 4.6 4.6 0 2.5-2 4.6-4.6 4.6l-95.1 0c-2.5 0-4.6-2-4.6-4.6 0-2.5 2-4.6 4.6-4.6z" fill="#141e23"/><path d="m1602.5 162.2c-8.8 0-15.9 7.2-15.9 15.9 0 8.8 7.1 15.9 15.9 15.9 8.8 0 15.9-7.2 15.9-16 0-8.8-7.2-15.9-15.9-15.9z" fill="#0d1417"/><path d="m1602.5 171.2c-3.8 0-6.9 3.1-6.9 6.9 0 3.8 3.1 6.9 6.9 6.9 3.8 0 6.9-3.1 6.9-6.9 0-3.8-3.1-6.9-6.9-6.9z" fill="#253841"/><path d="m1569.9 162.2c-8.8 0-15.9 7.2-15.9 15.9 0 8.8 7.1 15.9 15.9 15.9 8.8 0 15.9-7.2 15.9-16 0-8.8-7.2-15.9-15.9-15.9z" fill="#0f171b"/><path d="m1569.9 171.2c-3.8 0-6.9 3.1-6.9 6.9 0 3.8 3.1 6.9 6.9 6.9 3.8 0 6.9-3.1 6.9-6.9 0-3.8-3.1-6.9-6.9-6.9z" fill="#253841"/><path d="m1537.2 162.2c-8.8 0-15.9 7.2-15.9 15.9 0 8.8 7.1 15.9 15.9 15.9 8.8 0 15.9-7.2 15.9-16 0-8.8-7.2-15.9-15.9-15.9z" fill="#0d1417"/><path d="m1537.3 171.2c-3.8 0-6.9 3.1-6.9 6.9 0 3.8 3.1 6.9 6.9 6.9 3.8 0 6.9-3.1 6.9-6.9 0-3.8-3.1-6.9-6.9-6.9z" fill="#253841"/><path d="m1635.2 162.2c-8.8 0-15.9 7.2-15.9 15.9 0 8.8 7.1 15.9 15.9 15.9 8.8 0 15.9-7.2 15.9-16 0-8.8-7.2-15.9-15.9-15.9z" fill="#0f171b"/><path d="m1635.2 171.2c-3.8 0-6.9 3.1-6.9 6.9 0 3.8 3.1 6.9 6.9 6.9 3.8 0 6.9-3.1 6.9-6.9 0-3.8-3.1-6.9-6.9-6.9z" fill="#253841"/><path d="m1538.7 173.6 95.1 0c2.5 0 4.6 2 4.6 4.6 0 2.5-2 4.6-4.6 4.6l-95.1 0c-2.5 0-4.6-2-4.6-4.6 0-2.5 2-4.6 4.6-4.6z" fill="#141e23"/><path d="m2902.3 162.5c-8.8 0-15.9 7.2-15.9 15.9 0 8.8 7.1 15.9 15.9 15.9 8.8 0 15.9-7.2 15.9-16 0-8.8-7.2-15.9-15.9-15.9z" fill="#0d1417"/><path d="m2902.3 171.5c-3.8 0-6.9 3.1-6.9 6.9 0 3.8 3.1 6.9 6.9 6.9 3.8 0 6.9-3.1 6.9-6.9 0-3.8-3.1-6.9-6.9-6.9z" fill="#253841"/><path d="m2869.7 162.5c-8.8 0-15.9 7.2-15.9 15.9 0 8.8 7.1 15.9 15.9 15.9 8.8 0 15.9-7.2 15.9-16 0-8.8-7.2-15.9-15.9-15.9z" fill="#0f171b"/><path d="m2869.7 171.5c-3.8 0-6.9 3.1-6.9 6.9 0 3.8 3.1 6.9 6.9 6.9 3.8 0 6.9-3.1 6.9-6.9 0-3.8-3.1-6.9-6.9-6.9z" fill="#253841"/><path d="m2837 162.5c-8.8 0-15.9 7.2-15.9 15.9 0 8.8 7.1 15.9 15.9 15.9 8.8 0 15.9-7.2 15.9-16 0-8.8-7.2-15.9-15.9-15.9z" fill="#0d1417"/><path d="m2837 171.5c-3.8 0-6.9 3.1-6.9 6.9 0 3.8 3.1 6.9 6.9 6.9 3.8 0 6.9-3.1 6.9-6.9 0-3.8-3.1-6.9-6.9-6.9z" fill="#253841"/><path d="m2935 162.5c-8.8 0-15.9 7.2-15.9 15.9 0 8.8 7.1 15.9 15.9 15.9 8.8 0 15.9-7.2 15.9-16 0-8.8-7.2-15.9-15.9-15.9z" fill="#0f171b"/><path d="m2935 171.5c-3.8 0-6.9 3.1-6.9 6.9 0 3.8 3.1 6.9 6.9 6.9 3.8 0 6.9-3.1 6.9-6.9 0-3.8-3.1-6.9-6.9-6.9z" fill="#253841"/><rect width="104.3" height="9.2" x="2833.9" y="173.8" ry="4.6" fill="#141e23"/><path d="m3190.1 162.5c-8.8 0-15.9 7.2-15.9 15.9 0 8.8 7.1 15.9 15.9 15.9 8.8 0 15.9-7.2 15.9-16 0-8.8-7.2-15.9-15.9-15.9z" fill="#0d1417"/><path d="m3190.1 171.5c-3.8 0-6.9 3.1-6.9 6.9 0 3.8 3.1 6.9 6.9 6.9 3.8 0 6.9-3.1 6.9-6.9 0-3.8-3.1-6.9-6.9-6.9z" fill="#253841"/><path d="m3157.4 162.5c-8.8 0-15.9 7.2-15.9 15.9 0 8.8 7.1 15.9 15.9 15.9 8.8 0 15.9-7.2 15.9-16 0-8.8-7.2-15.9-15.9-15.9z" fill="#0f171b"/><path d="m3157.5 171.5c-3.8 0-6.9 3.1-6.9 6.9 0 3.8 3.1 6.9 6.9 6.9 3.8 0 6.9-3.1 6.9-6.9 0-3.8-3.1-6.9-6.9-6.9z" fill="#253841"/><path d="m3124.8 162.5c-8.8 0-15.9 7.2-15.9 15.9 0 8.8 7.1 15.9 15.9 15.9 8.8 0 15.9-7.2 15.9-16 0-8.8-7.2-15.9-15.9-15.9z" fill="#0d1417"/><path d="m3124.8 171.5c-3.8 0-6.9 3.1-6.9 6.9 0 3.8 3.1 6.9 6.9 6.9 3.8 0 6.9-3.1 6.9-6.9 0-3.8-3.1-6.9-6.9-6.9z" fill="#253841"/><path d="m3222.7 162.5c-8.8 0-15.9 7.2-15.9 15.9 0 8.8 7.1 15.9 15.9 15.9 8.8 0 15.9-7.2 15.9-16 0-8.8-7.2-15.9-15.9-15.9z" fill="#0f171b"/><path d="m3222.7 171.5c-3.8 0-6.9 3.1-6.9 6.9 0 3.8 3.1 6.9 6.9 6.9 3.8 0 6.9-3.1 6.9-6.9 0-3.8-3.1-6.9-6.9-6.9z" fill="#253841"/><rect width="104.3" height="9.2" x="3121.6" y="173.8" ry="4.6" fill="#141e23"/><path d="m2570.5 162.2c-8.8 0-15.9 7.2-15.9 15.9 0 8.8 7.1 15.9 15.9 15.9 8.8 0 15.9-7.2 15.9-16 0-8.8-7.2-15.9-15.9-15.9z" fill="#0d1417"/><path d="m2570.5 171.2c-3.8 0-6.9 3.1-6.9 6.9 0 3.8 3.1 6.9 6.9 6.9 3.8 0 6.9-3.1 6.9-6.9 0-3.8-3.1-6.9-6.9-6.9z" fill="#253841"/><path d="m2537.8 162.2c-8.8 0-15.9 7.2-15.9 15.9 0 8.8 7.1 15.9 15.9 15.9 8.8 0 15.9-7.2 15.9-16 0-8.8-7.2-15.9-15.9-15.9z" fill="#0f171b"/><path d="m2537.9 171.2c-3.8 0-6.9 3.1-6.9 6.9 0 3.8 3.1 6.9 6.9 6.9 3.8 0 6.9-3.1 6.9-6.9 0-3.8-3.1-6.9-6.9-6.9z" fill="#253841"/><path d="m2505.2 162.2c-8.8 0-15.9 7.2-15.9 15.9 0 8.8 7.1 15.9 15.9 15.9 8.8 0 15.9-7.2 15.9-16 0-8.8-7.2-15.9-15.9-15.9z" fill="#0d1417"/><path d="m2505.2 171.2c-3.8 0-6.9 3.1-6.9 6.9 0 3.8 3.1 6.9 6.9 6.9 3.8 0 6.9-3.1 6.9-6.9 0-3.8-3.1-6.9-6.9-6.9z" fill="#253841"/><path d="m2603.1 162.2c-8.8 0-15.9 7.2-15.9 15.9 0 8.8 7.1 15.9 15.9 15.9 8.8 0 15.9-7.2 15.9-16 0-8.8-7.2-15.9-15.9-15.9z" fill="#0f171b"/><path d="m2603.2 171.2c-3.8 0-6.9 3.1-6.9 6.9 0 3.8 3.1 6.9 6.9 6.9 3.8 0 6.9-3.1 6.9-6.9 0-3.8-3.1-6.9-6.9-6.9z" fill="#253841"/><path d="m2506.6 173.6 95.1 0c2.5 0 4.6 2 4.6 4.6 0 2.5-2 4.6-4.6 4.6l-95.1 0c-2.5 0-4.6-2-4.6-4.6 0-2.5 2-4.6 4.6-4.6z" fill="#141e23"/><path d="m2282.9 162.2c-8.8 0-15.9 7.2-15.9 15.9 0 8.8 7.1 15.9 15.9 15.9 8.8 0 15.9-7.2 15.9-16 0-8.8-7.2-15.9-15.9-15.9z" fill="#0d1417"/><path d="m2282.9 171.2c-3.8 0-6.9 3.1-6.9 6.9 0 3.8 3.1 6.9 6.9 6.9 3.8 0 6.9-3.1 6.9-6.9 0-3.8-3.1-6.9-6.9-6.9z" fill="#253841"/><path d="m2250.3 162.2c-8.8 0-15.9 7.2-15.9 15.9 0 8.8 7.1 15.9 15.9 15.9 8.8 0 15.9-7.2 15.9-16 0-8.8-7.2-15.9-15.9-15.9z" fill="#0f171b"/><path d="m2250.3 171.2c-3.8 0-6.9 3.1-6.9 6.9 0 3.8 3.1 6.9 6.9 6.9 3.8 0 6.9-3.1 6.9-6.9 0-3.8-3.1-6.9-6.9-6.9z" fill="#253841"/><path d="m2217.6 162.2c-8.8 0-15.9 7.2-15.9 15.9 0 8.8 7.1 15.9 15.9 15.9 8.8 0 15.9-7.2 15.9-16 0-8.8-7.2-15.9-15.9-15.9z" fill="#0d1417"/><path d="m2217.7 171.2c-3.8 0-6.9 3.1-6.9 6.9 0 3.8 3.1 6.9 6.9 6.9 3.8 0 6.9-3.1 6.9-6.9 0-3.8-3.1-6.9-6.9-6.9z" fill="#253841"/><path d="m2315.6 162.2c-8.8 0-15.9 7.2-15.9 15.9 0 8.8 7.1 15.9 15.9 15.9 8.8 0 15.9-7.2 15.9-16 0-8.8-7.2-15.9-15.9-15.9z" fill="#0f171b"/><path d="m2315.6 171.2c-3.8 0-6.9 3.1-6.9 6.9 0 3.8 3.1 6.9 6.9 6.9 3.8 0 6.9-3.1 6.9-6.9 0-3.8-3.1-6.9-6.9-6.9z" fill="#253841"/><path d="m2219.1 173.6 95.1 0c2.5 0 4.6 2 4.6 4.6 0 2.5-2 4.6-4.6 4.6l-95.1 0c-2.5 0-4.6-2-4.6-4.6 0-2.5 2-4.6 4.6-4.6z" fill="#141e23"/><rect width="13.8" height="153.8" x="1366.2" y="11.7" ry="0.5" fill="#0f171b"/><path d="m708.5 141.3c-5.6 0-10.1 4.5-10.1 10.1l0 18.9c0 5.6 4.5 10.1 10.1 10.1l116.9 0c0.8-8.2 7.7-14.5 16.1-14.5l91 0c8.4 0 15.3 6.3 16.1 14.5l164.6 0c0.8-8.2 7.7-14.5 16.1-14.5l91 0c8.4 0 15.3 6.3 16.1 14.5l121.9 0c5.6 0 10.1-4.5 10.1-10.1l0-18.9c0-5.6-4.5-10.1-10.1-10.1z" fill="#283b45"/><path d="m706.3 0c-4.3 0-7.8 3-7.8 6.7l0 133.3c0 3.7 3.5 6.7 7.8 6.7l654.2 0c4.3 0 7.8-3 7.8-6.7l0-133.3c0-3.7-3.5-6.7-7.8-6.7z" fill="#bfccd3"/><path d="m698.4 34.6 669.9 0 0 99.6-669.9 0 0 14.2 669.9 0 0-128.1-669.9 0z" fill="#87a3b1"/><rect width="629.7" height="45.1" x="717.7" y="41" ry="8" fill="#283b45"/><rect width="77.6" height="45.1" x="1171.5" y="41" ry="0" fill="#456576"/><rect width="77.6" height="45.1" x="1082.6" y="41" ry="0" fill="#456576"/><rect width="77.6" height="45.1" x="993.8" y="41" ry="0" fill="#456576"/><rect width="77.6" height="45.1" x="904.9" y="41" ry="0" fill="#456576"/><rect width="77.6" height="45.1" x="816.1" y="41" ry="0" fill="#456576"/><rect width="44.7" height="45.1" x="1285.8" y="41" ry="0" fill="#456576"/><rect width="44.7" height="45.1" x="734.8" y="41" ry="0" fill="#456576"/><rect width="13.8" height="153.8" x="2047.1" y="11.7" ry="0.5" fill="#0f171b"/><path d="m1389.4 141.3c-5.6 0-10.1 4.5-10.1 10.1l0 18.9c0 5.6 4.5 10.1 10.1 10.1l116.9 0c0.8-8.2 7.7-14.5 16.1-14.5l91 0c8.4 0 15.3 6.3 16.1 14.5l164.6 0c0.8-8.2 7.7-14.5 16.1-14.5l91 0c8.4 0 15.3 6.3 16.1 14.5l121.9 0c5.6 0 10.1-4.5 10.1-10.1l0-18.9c0-5.6-4.5-10.1-10.1-10.1z" fill="#283b45"/><path d="m1387.2 0c-4.3 0-7.8 3-7.8 6.7l0 133.3c0 3.7 3.5 6.7 7.8 6.7l654.2 0c4.3 0 7.8-3 7.8-6.7l0-133.3c0-3.7-3.5-6.7-7.8-6.7z" fill="#bfccd3"/><path d="m1379.4 34.6 669.9 0 0 99.6-669.9 0 0 14.2 669.9 0 0-128.1-669.9 0z" fill="#87a3b1"/><rect width="629.7" height="45.1" x="1398.7" y="41" ry="8" fill="#283b45"/><rect width="77.6" height="45.1" x="1852.4" y="41" ry="0" fill="#456576"/><rect width="77.6" height="45.1" x="1763.5" y="41" ry="0" fill="#456576"/><rect width="77.6" height="45.1" x="1674.7" y="41" ry="0" fill="#456576"/><rect width="77.6" height="45.1" x="1585.9" y="41" ry="0" fill="#456576"/><rect width="77.6" height="45.1" x="1497" y="41" ry="0" fill="#456576"/><rect width="44.7" height="45.1" x="1966.7" y="41" ry="0" fill="#456576"/><rect width="44.7" height="45.1" x="1415.7" y="41" ry="0" fill="#456576"/><path d="m2746.1 0.9 467.5 0c70.9 0.5 198 99.2 198 139.9 0 2.9-3.5 6.7-7.8 6.7l-657.7 0c-4.3 0-7.8-3-7.8-6.7l0-133.3c0-3.7 3.5-6.7 7.8-6.7z" fill="#87a3b1"/><path d="m3360.8 73.1c-2.3-2-4.5-3.9-6.9-5.9-4.8-3.8-9.7-7.7-14.8-11.4-5.1-3.7-10.3-7.4-15.6-10.9-5.3-3.5-10.7-6.9-16.2-10.2-2.7-1.6-5.5-3.2-8.2-4.8-2-1.2-4.1-2.3-6.1-3.4l-130 0c-3.8 0-1.9 2.3-1.9 2.3 0 0 21.9 30.6 38.2 41.3 2.3 1.5 5.1 2.4 7.9 2.9 50.1 8.9 153.6 0 153.6 0z" fill="#b5ced6"/><path d="m2738.2 41 339.3 0 0 45.1-339.3 0zm9.5 98.9c-5.3 0-9.5 4.3-9.5 9.5l0 20c0 5.3 4.3 9.5 9.5 9.5l56.8 0c0.8-8.2 7.7-14.5 16.1-14.5l91 0c8.4 0 15.3 6.3 16.1 14.5l164.6 0c0.8-8.2 7.7-14.5 16.1-14.5l91 0c8.4 0 15.3 6.3 16.1 14.5l174 0c5.3 0 7.5-4.6 9.5-9.5l9-21.8c0 0-4.3-7.7-9.5-7.7l-650.8 0z" fill="#283b45"/><path d="m2738.2 35.6 360.7 0c8.9-0.7 73.9 99.6 61.4 99.6l-422.1 0 0 14.2 668.3 0c15 0 22.8-0.8 18-12.1-10.5-23.3-30.4-36.4-30.4-36.4 0 0-3.1-2.5-10.7-2.5l-178.5-1.2c-11 1.8-58.9-75.4-65.8-75.9l-401 0z" fill="#445a66"/><rect width="77.6" height="45.1" x="2921.6" y="41" ry="0" fill="#456576"/><rect width="77.6" height="45.1" x="2833.4" y="41" ry="0" fill="#456576"/><rect width="44.7" height="45.1" x="2763.7" y="41" ry="0" fill="#456576"/><path d="m3008 41 73.2 0c3.7 0 5.6 2.7 6.7 5.7l12.7 33.7c2.3 6.2-3 5.7-6.7 5.7l-85.9 0z" fill="#456576"/><path d="m2069.8 141.3c-5.6 0-10.1 4.5-10.1 10.1l0 18.9c0 5.6 4.5 10.1 10.1 10.1l116.9 0c0.8-8.2 7.7-14.5 16.1-14.5l91 0c8.4 0 15.3 6.3 16.1 14.5l164.6 0c0.8-8.2 7.7-14.5 16.1-14.5l91 0c8.4 0 15.3 6.3 16.1 14.5l121.9 0c5.6 0 10.1-4.5 10.1-10.1l0-18.9c0-5.6-4.5-10.1-10.1-10.1z" fill="#283b45"/><path d="m2067.6 0c-4.3 0-7.8 3-7.8 6.7l0 133.3c0 3.7 3.5 6.7 7.8 6.7l654.2 0c4.3 0 7.8-3 7.8-6.7l0-133.3c0-3.7-3.5-6.7-7.8-6.7z" fill="#bfccd3"/><path d="m2059.8 34.6 669.9 0 0 99.6-669.9 0 0 14.2 669.9 0 0-128.1-669.9 0z" fill="#87a3b1"/><rect width="629.7" height="45.1" x="2079.1" y="41" ry="8" fill="#283b45"/><rect width="77.6" height="45.1" x="2532.8" y="41" ry="0" fill="#456576"/><rect width="77.6" height="45.1" x="2443.9" y="41" ry="0" fill="#456576"/><rect width="77.6" height="45.1" x="2355.1" y="41" ry="0" fill="#456576"/><rect width="77.6" height="45.1" x="2266.3" y="41" ry="0" fill="#456576"/><rect width="77.6" height="45.1" x="2177.4" y="41" ry="0" fill="#456576"/><rect width="44.7" height="45.1" x="2647.1" y="41" ry="0" fill="#456576"/><rect width="44.7" height="45.1" x="2096.1" y="41" ry="0" fill="#456576"/></g></svg>