<svg xmlns:svg="http://www.w3.org/2000/svg" xmlns="http://www.w3.org/2000/svg" version="1.1" width="910" height="136.2"><defs><filter color-interpolation-filters="sRGB"><feTurbulence seed="945" type="turbulence" numOctaves="10" baseFrequency="0.3"/><feColorMatrix result="result5" values="1"/><feComposite in2="result5" operator="in" in="SourceGraphic" result="result6"/><feMorphology in="result6" operator="dilate" radius="5" result="result3"/><feDisplacementMap in2="result3" scale="0" xChannelSelector="R" yChannelSelector="A" in="result3" result="result4"/><feComposite in2="result4" operator="arithmetic" k1="1" k2="0" k3="1" k4="0" result="result2"/><feBlend in2="result2" mode="darken" in="result2"/><feConvolveMatrix edgeMode="duplicate" divisor="2" targetY="1" targetX="1" kernelMatrix="2" order="3"/></filter></defs><g transform="translate(83.571431,-458.56741)"><g transform="translate(-53.571427,488.56741)"><g transform="matrix(0.29283902,0.0275312,-0.0275312,0.29283902,374.97449,-68.754796)"><animateMotion values="0,0;0,-10;0,0" repeatCount="indefinite" dur="5s" /><rect width="11" height="122.9" ry="0.4" x="675" y="380.8" transform="scale(-1,1)" fill="#0f171b"/><path d="m-785.9 501.3c7 0 12.7 5.8 12.7 12.7 0 7-5.7 12.7-12.7 12.7-7 0-12.7-5.8-12.7-12.8 0-7 5.8-12.7 12.7-12.7z" fill="#0d1417"/><path d="m-785.9 508.5c3 0 5.5 2.5 5.5 5.5 0 3-2.5 5.5-5.5 5.5-3 0-5.5-2.5-5.5-5.5 0-3 2.5-5.5 5.5-5.5z" fill="#253841"/><path d="m-759.8 501.3c7 0 12.7 5.8 12.7 12.7 0 7-5.7 12.7-12.7 12.7-7 0-12.7-5.8-12.7-12.8 0-7 5.8-12.7 12.7-12.7z" fill="#0f171b"/><path d="m-759.8 508.5c3 0 5.5 2.5 5.5 5.5 0 3-2.5 5.5-5.5 5.5-3 0-5.5-2.5-5.5-5.5 0-3 2.5-5.5 5.5-5.5z" fill="#253841"/><path d="m-733.7 501.3c7 0 12.7 5.8 12.7 12.7 0 7-5.7 12.7-12.7 12.7-7 0-12.7-5.8-12.7-12.8 0-7 5.8-12.7 12.7-12.7z" fill="#0d1417"/><path d="m-733.7 508.5c3 0 5.5 2.5 5.5 5.5 0 3-2.5 5.5-5.5 5.5-3 0-5.5-2.5-5.5-5.5 0-3 2.5-5.5 5.5-5.5z" fill="#253841"/><path d="m-812 501.3c7 0 12.7 5.8 12.7 12.7 0 7-5.7 12.7-12.7 12.7-7 0-12.7-5.8-12.7-12.8 0-7 5.8-12.7 12.7-12.7z" fill="#0f171b"/><path d="m-812 508.5c3 0 5.5 2.5 5.5 5.5 0 3-2.5 5.5-5.5 5.5-3 0-5.5-2.5-5.5-5.5 0-3 2.5-5.5 5.5-5.5z" fill="#253841"/><rect width="83.4" height="7.4" ry="3.7" x="731.2" y="510.3" transform="scale(-1,1)" fill="#141e23"/><path d="m-1015.9 501.3c7 0 12.7 5.8 12.7 12.7 0 7-5.7 12.7-12.7 12.7-7 0-12.7-5.8-12.7-12.8 0-7 5.8-12.7 12.7-12.7z" fill="#0d1417"/><path d="m-1015.9 508.5c3 0 5.5 2.5 5.5 5.5 0 3-2.5 5.5-5.5 5.5-3 0-5.5-2.5-5.5-5.5 0-3 2.5-5.5 5.5-5.5z" fill="#253841"/><path d="m-989.8 501.3c7 0 12.7 5.8 12.7 12.7 0 7-5.7 12.7-12.7 12.7-7 0-12.7-5.8-12.7-12.8 0-7 5.8-12.7 12.7-12.7z" fill="#0f171b"/><path d="m-989.8 508.5c3 0 5.5 2.5 5.5 5.5 0 3-2.5 5.5-5.5 5.5-3 0-5.5-2.5-5.5-5.5 0-3 2.5-5.5 5.5-5.5z" fill="#253841"/><path d="m-963.7 501.3c7 0 12.7 5.8 12.7 12.7 0 7-5.7 12.7-12.7 12.7-7 0-12.7-5.8-12.7-12.8 0-7 5.8-12.7 12.7-12.7z" fill="#0d1417"/><path d="m-963.7 508.5c3 0 5.5 2.5 5.5 5.5 0 3-2.5 5.5-5.5 5.5-3 0-5.5-2.5-5.5-5.5 0-3 2.5-5.5 5.5-5.5z" fill="#253841"/><path d="m-1041.9 501.3c7 0 12.7 5.8 12.7 12.7 0 7-5.7 12.7-12.7 12.7-7 0-12.7-5.8-12.7-12.8 0-7 5.8-12.7 12.7-12.7z" fill="#0f171b"/><path d="m-1042 508.5c3 0 5.5 2.5 5.5 5.5 0 3-2.5 5.5-5.5 5.5-3 0-5.5-2.5-5.5-5.5 0-3 2.5-5.5 5.5-5.5z" fill="#253841"/><rect width="83.4" height="7.4" ry="3.7" x="961.2" y="510.3" transform="scale(-1,1)" fill="#141e23"/><path d="m-691.4 372.2-373.7 0c-56.7 0.4-158.3 79.2-158.3 111.8 0 2.3 2.8 5.4 6.2 5.4l525.7 0c3.4 0 6.2-2.4 6.2-5.4l0-106.5c0-3-2.8-5.4-6.2-5.4z" fill="#87a3b1"/><path d="m-1182.7 429.8c1.8-1.6 3.6-3.1 5.5-4.7 3.8-3 7.8-6.2 11.8-9.1 4.1-3 8.2-5.9 12.5-8.7 4.2-2.8 8.6-5.5 12.9-8.2 2.2-1.3 4.4-2.6 6.6-3.8 1.6-1 3.3-1.8 4.9-2.7l103.9 0c3 0 1.5 1.8 1.5 1.8 0 0-17.5 24.5-30.5 33-1.8 1.2-4.1 1.9-6.3 2.3-40 7.1-122.8 0-122.8 0z" fill="#b5ced6"/><path d="m-685.2 404.2-271.2 0 0 36 271.2 0zm-7.6 79c4.2 0 7.6 3.4 7.6 7.6l0 16c0 4.2-3.4 7.6-7.6 7.6l-45.4 0c-0.6-6.6-6.2-11.6-12.9-11.6l-72.7 0c-6.7 0-12.2 5-12.9 11.6l-131.6 0c-0.6-6.6-6.2-11.6-12.9-11.6l-72.7 0c-6.7 0-12.2 5-12.9 11.6l-139.1 0c-4.2 0-6-3.7-7.6-7.6l-7.2-17.4c0 0 3.4-6.2 7.6-6.2l520.2 0z" fill="#283b45"/><path d="m-685.2 399.8-288.3 0c-7.1-0.6-59.1 79.6-49.1 79.6l337.4 0 0 11.3-534.1 0c-12 0-18.2-0.6-14.4-9.7 8.4-18.6 24.3-29.1 24.3-29.1 0 0 2.5-2 8.6-2l142.7-1c8.8 1.4 47.1-60.3 52.6-60.7l320.5 0z" fill="#445a66"/><rect width="62" height="36" ry="0" x="831.7" y="404.2" transform="scale(-1,1)" fill="#456576"/><rect width="62" height="36" ry="0" x="761.2" y="404.2" transform="scale(-1,1)" fill="#456576"/><rect width="35.7" height="36" ry="0" x="705.5" y="404.2" transform="scale(-1,1)" fill="#456576"/><path d="m-900.7 404.2-58.5 0c-3 0-4.5 2.2-5.4 4.6l-10.2 26.9c-1.8 5 2.4 4.6 5.4 4.6l68.7 0z" fill="#456576"/></g><g transform="matrix(0.29189605,-0.03618501,0.03618501,0.29189605,358.23058,-106.28583)"><animateMotion values="0,0;0,10;0,0" repeatCount="indefinite" dur="5s" /><path d="m-268.3 501.5c-7 0-12.7 5.8-12.7 12.7 0 7 5.7 12.7 12.7 12.7 7 0 12.7-5.8 12.7-12.8 0-7-5.8-12.7-12.7-12.7z" fill="#0d1417"/><path d="m-268.3 508.7c-3 0-5.5 2.5-5.5 5.5 0 3 2.5 5.5 5.5 5.5 3 0 5.5-2.5 5.5-5.5 0-3-2.5-5.5-5.5-5.5z" fill="#253841"/><path d="m-294.5 501.5c-7 0-12.7 5.8-12.7 12.7 0 7 5.7 12.7 12.7 12.7 7 0 12.7-5.8 12.7-12.8 0-7-5.8-12.7-12.7-12.7z" fill="#0f171b"/><path d="m-294.4 508.7c-3 0-5.5 2.5-5.5 5.5 0 3 2.5 5.5 5.5 5.5 3 0 5.5-2.5 5.5-5.5 0-3-2.5-5.5-5.5-5.5z" fill="#253841"/><path d="m-320.5 501.5c-7 0-12.7 5.8-12.7 12.7 0 7 5.7 12.7 12.7 12.7 7 0 12.7-5.8 12.7-12.8 0-7-5.8-12.7-12.7-12.7z" fill="#0d1417"/><path d="m-320.5 508.7c-3 0-5.5 2.5-5.5 5.5 0 3 2.5 5.5 5.5 5.5 3 0 5.5-2.5 5.5-5.5 0-3-2.5-5.5-5.5-5.5z" fill="#253841"/><path d="m-242.3 501.5c-7 0-12.7 5.8-12.7 12.7 0 7 5.7 12.7 12.7 12.7 7 0 12.7-5.8 12.7-12.8 0-7-5.8-12.7-12.7-12.7z" fill="#0f171b"/><path d="m-242.3 508.7c-3 0-5.5 2.5-5.5 5.5 0 3 2.5 5.5 5.5 5.5 3 0 5.5-2.5 5.5-5.5 0-3-2.5-5.5-5.5-5.5z" fill="#253841"/><path d="m-319.4 510.6 76 0c2 0 3.7 1.6 3.7 3.7 0 2-1.6 3.7-3.7 3.7l-76 0c-2 0-3.7-1.6-3.7-3.7 0-2 1.6-3.7 3.7-3.7z" fill="#141e23"/><path d="m-498.2 501.5c-7 0-12.7 5.8-12.7 12.7 0 7 5.7 12.7 12.7 12.7 7 0 12.7-5.8 12.7-12.8 0-7-5.8-12.7-12.7-12.7z" fill="#0d1417"/><path d="m-498.2 508.7c-3 0-5.5 2.5-5.5 5.5 0 3 2.5 5.5 5.5 5.5 3 0 5.5-2.5 5.5-5.5 0-3-2.5-5.5-5.5-5.5z" fill="#253841"/><path d="m-524.3 501.5c-7 0-12.7 5.8-12.7 12.7 0 7 5.7 12.7 12.7 12.7 7 0 12.7-5.8 12.7-12.8 0-7-5.8-12.7-12.7-12.7z" fill="#0f171b"/><path d="m-524.3 508.7c-3 0-5.5 2.5-5.5 5.5 0 3 2.5 5.5 5.5 5.5 3 0 5.5-2.5 5.5-5.5 0-3-2.5-5.5-5.5-5.5z" fill="#253841"/><path d="m-550.4 501.5c-7 0-12.7 5.8-12.7 12.7 0 7 5.7 12.7 12.7 12.7 7 0 12.7-5.8 12.7-12.8 0-7-5.8-12.7-12.7-12.7z" fill="#0d1417"/><path d="m-550.4 508.7c-3 0-5.5 2.5-5.5 5.5 0 3 2.5 5.5 5.5 5.5 3 0 5.5-2.5 5.5-5.5 0-3-2.5-5.5-5.5-5.5z" fill="#253841"/><path d="m-472.1 501.5c-7 0-12.7 5.8-12.7 12.7 0 7 5.7 12.7 12.7 12.7 7 0 12.7-5.8 12.7-12.8 0-7-5.8-12.7-12.7-12.7z" fill="#0f171b"/><path d="m-472.1 508.7c-3 0-5.5 2.5-5.5 5.5 0 3 2.5 5.5 5.5 5.5 3 0 5.5-2.5 5.5-5.5 0-3-2.5-5.5-5.5-5.5z" fill="#253841"/><path d="m-549.2 510.6 76 0c2 0 3.7 1.6 3.7 3.7 0 2-1.6 3.7-3.7 3.7l-76 0c-2 0-3.7-1.6-3.7-3.7 0-2 1.6-3.7 3.7-3.7z" fill="#141e23"/><rect width="11" height="122.9" ry="0.4" x="-142.9" y="381.2" fill="#0f171b"/><path d="m-668.5 484.8c-4.5 0-8.1 3.6-8.1 8.1l0 15.1c0 4.5 3.6 8.1 8.1 8.1l93.4 0c0.6-6.6 6.2-11.6 12.9-11.6l72.7 0c6.7 0 12.2 5 12.9 11.6l131.6 0c0.6-6.6 6.2-11.6 12.9-11.6l72.7 0c6.7 0 12.2 5 12.9 11.6l97.4 0c4.5 0 8.1-3.6 8.1-8.1l0-15.1c0-4.5-3.6-8.1-8.1-8.1z" fill="#283b45"/><path d="m-670.3 371.9c-3.4 0-6.2 2.4-6.2 5.4l0 106.5c0 3 2.8 5.4 6.2 5.4l522.9 0c3.4 0 6.2-2.4 6.2-5.4l0-106.5c0-3-2.8-5.4-6.2-5.4z" fill="#bfccd3"/><path d="m-676.6 399.5 535.4 0 0 79.6-535.4 0 0 11.3 535.4 0 0-102.4-535.4 0z" fill="#87a3b1"/><rect width="503.3" height="36" ry="6.4" x="-661.2" y="404.6" fill="#283b45"/><rect width="62" height="36" ry="0" x="-298.5" y="404.6" fill="#456576"/><rect width="62" height="36" ry="0" x="-369.5" y="404.6" fill="#456576"/><rect width="62" height="36" ry="0" x="-440.5" y="404.6" fill="#456576"/><rect width="62" height="36" ry="0" x="-511.6" y="404.6" fill="#456576"/><rect width="62" height="36" ry="0" x="-582.5" y="404.6" fill="#456576"/><rect width="35.7" height="36" ry="0" x="-207.1" y="404.6" fill="#456576"/><rect width="35.7" height="36" ry="0" x="-647.5" y="404.6" fill="#456576"/></g><g transform="matrix(0.29119654,0.04143968,-0.04143968,0.29119654,405.18716,-96.786294)"><animateMotion values="0,0;0,-10;0,0" repeatCount="indefinite" dur="5s" /><path d="m275.9 501.5c-7 0-12.7 5.8-12.7 12.7 0 7 5.7 12.7 12.7 12.7 7 0 12.7-5.8 12.7-12.8 0-7-5.8-12.7-12.7-12.7z" fill="#0d1417"/><path d="m275.9 508.7c-3 0-5.5 2.5-5.5 5.5 0 3 2.5 5.5 5.5 5.5 3 0 5.5-2.5 5.5-5.5 0-3-2.5-5.5-5.5-5.5z" fill="#253841"/><path d="m249.7 501.5c-7 0-12.7 5.8-12.7 12.7 0 7 5.7 12.7 12.7 12.7 7 0 12.7-5.8 12.7-12.8 0-7-5.8-12.7-12.7-12.7z" fill="#0f171b"/><path d="m249.8 508.7c-3 0-5.5 2.5-5.5 5.5 0 3 2.5 5.5 5.5 5.5 3 0 5.5-2.5 5.5-5.5 0-3-2.5-5.5-5.5-5.5z" fill="#253841"/><path d="m223.7 501.5c-7 0-12.7 5.8-12.7 12.7 0 7 5.7 12.7 12.7 12.7 7 0 12.7-5.8 12.7-12.8 0-7-5.8-12.7-12.7-12.7z" fill="#0d1417"/><path d="m223.7 508.7c-3 0-5.5 2.5-5.5 5.5 0 3 2.5 5.5 5.5 5.5 3 0 5.5-2.5 5.5-5.5 0-3-2.5-5.5-5.5-5.5z" fill="#253841"/><path d="m301.9 501.5c-7 0-12.7 5.8-12.7 12.7 0 7 5.7 12.7 12.7 12.7 7 0 12.7-5.8 12.7-12.8 0-7-5.8-12.7-12.7-12.7z" fill="#0f171b"/><path d="m302 508.7c-3 0-5.5 2.5-5.5 5.5 0 3 2.5 5.5 5.5 5.5 3 0 5.5-2.5 5.5-5.5 0-3-2.5-5.5-5.5-5.5z" fill="#253841"/><path d="m224.8 510.6 76 0c2 0 3.7 1.6 3.7 3.7 0 2-1.6 3.7-3.7 3.7l-76 0c-2 0-3.7-1.6-3.7-3.7 0-2 1.6-3.7 3.7-3.7z" fill="#141e23"/><path d="m46 501.5c-7 0-12.7 5.8-12.7 12.7 0 7 5.7 12.7 12.7 12.7 7 0 12.7-5.8 12.7-12.8 0-7-5.8-12.7-12.7-12.7z" fill="#0d1417"/><path d="m46 508.7c-3 0-5.5 2.5-5.5 5.5 0 3 2.5 5.5 5.5 5.5 3 0 5.5-2.5 5.5-5.5 0-3-2.5-5.5-5.5-5.5z" fill="#253841"/><path d="m20 501.5c-7 0-12.7 5.8-12.7 12.7 0 7 5.7 12.7 12.7 12.7 7 0 12.7-5.8 12.7-12.8 0-7-5.8-12.7-12.7-12.7z" fill="#0f171b"/><path d="m20 508.7c-3 0-5.5 2.5-5.5 5.5 0 3 2.5 5.5 5.5 5.5 3 0 5.5-2.5 5.5-5.5 0-3-2.5-5.5-5.5-5.5z" fill="#253841"/><path d="m-6.2 501.5c-7 0-12.7 5.8-12.7 12.7 0 7 5.7 12.7 12.7 12.7 7 0 12.7-5.8 12.7-12.8 0-7-5.8-12.7-12.7-12.7z" fill="#0d1417"/><path d="m-6.1 508.7c-3 0-5.5 2.5-5.5 5.5 0 3 2.5 5.5 5.5 5.5 3 0 5.5-2.5 5.5-5.5 0-3-2.5-5.5-5.5-5.5z" fill="#253841"/><path d="m72.1 501.5c-7 0-12.7 5.8-12.7 12.7 0 7 5.7 12.7 12.7 12.7 7 0 12.7-5.8 12.7-12.8 0-7-5.8-12.7-12.7-12.7z" fill="#0f171b"/><path d="m72.1 508.7c-3 0-5.5 2.5-5.5 5.5 0 3 2.5 5.5 5.5 5.5 3 0 5.5-2.5 5.5-5.5 0-3-2.5-5.5-5.5-5.5z" fill="#253841"/><path d="m-5 510.6 76 0c2 0 3.7 1.6 3.7 3.7 0 2-1.6 3.7-3.7 3.7l-76 0c-2 0-3.7-1.6-3.7-3.7 0-2 1.6-3.7 3.7-3.7z" fill="#141e23"/><rect width="11" height="122.9" ry="0.4" x="401.4" y="381.2" fill="#0f171b"/><path d="m-124.3 484.8c-4.5 0-8.1 3.6-8.1 8.1l0 15.1c0 4.5 3.6 8.1 8.1 8.1l93.4 0c0.6-6.6 6.2-11.6 12.9-11.6l72.7 0c6.7 0 12.2 5 12.9 11.6l131.6 0c0.6-6.6 6.2-11.6 12.9-11.6l72.7 0c6.7 0 12.2 5 12.9 11.6l97.4 0c4.5 0 8.1-3.6 8.1-8.1l0-15.1c0-4.5-3.6-8.1-8.1-8.1z" fill="#283b45"/><path d="m-126.1 371.9c-3.4 0-6.2 2.4-6.2 5.4l0 106.5c0 3 2.8 5.4 6.2 5.4l522.9 0c3.4 0 6.2-2.4 6.2-5.4l0-106.5c0-3-2.8-5.4-6.2-5.4z" fill="#bfccd3"/><path d="m-132.3 399.5 535.4 0 0 79.6-535.4 0 0 11.3 535.4 0 0-102.4-535.4 0z" fill="#87a3b1"/><rect width="503.3" height="36" ry="6.4" x="-116.9" y="404.6" fill="#283b45"/><rect width="62" height="36" ry="0" x="245.7" y="404.6" fill="#456576"/><rect width="62" height="36" ry="0" x="174.7" y="404.6" fill="#456576"/><rect width="62" height="36" ry="0" x="103.7" y="404.6" fill="#456576"/><rect width="62" height="36" ry="0" x="32.7" y="404.6" fill="#456576"/><rect width="62" height="36" ry="0" x="-38.3" y="404.6" fill="#456576"/><rect width="35.7" height="36" ry="0" x="337.1" y="404.6" fill="#456576"/><rect width="35.7" height="36" ry="0" x="-103.3" y="404.6" fill="#456576"/></g><g transform="matrix(0.29215219,0.03405525,-0.03405525,0.29215219,427.34058,-133.00463)"><animateMotion values="0,0;0,10;0,0" repeatCount="indefinite" dur="5s" /><path d="m1084.9 501.7c-7 0-12.7 5.8-12.7 12.7 0 7 5.7 12.7 12.7 12.7 7 0 12.7-5.8 12.7-12.8 0-7-5.8-12.7-12.7-12.7z" fill="#0d1417"/><path d="m1084.9 508.9c-3 0-5.5 2.5-5.5 5.5 0 3 2.5 5.5 5.5 5.5 3 0 5.5-2.5 5.5-5.5 0-3-2.5-5.5-5.5-5.5z" fill="#253841"/><path d="m1058.8 501.7c-7 0-12.7 5.8-12.7 12.7 0 7 5.7 12.7 12.7 12.7 7 0 12.7-5.8 12.7-12.8 0-7-5.8-12.7-12.7-12.7z" fill="#0f171b"/><path d="m1058.8 508.9c-3 0-5.5 2.5-5.5 5.5 0 3 2.5 5.5 5.5 5.5 3 0 5.5-2.5 5.5-5.5 0-3-2.5-5.5-5.5-5.5z" fill="#253841"/><path d="m1032.7 501.7c-7 0-12.7 5.8-12.7 12.7 0 7 5.7 12.7 12.7 12.7 7 0 12.7-5.8 12.7-12.8 0-7-5.8-12.7-12.7-12.7z" fill="#0d1417"/><path d="m1032.7 508.9c-3 0-5.5 2.5-5.5 5.5 0 3 2.5 5.5 5.5 5.5 3 0 5.5-2.5 5.5-5.5 0-3-2.5-5.5-5.5-5.5z" fill="#253841"/><path d="m1111 501.7c-7 0-12.7 5.8-12.7 12.7 0 7 5.7 12.7 12.7 12.7 7 0 12.7-5.8 12.7-12.8 0-7-5.8-12.7-12.7-12.7z" fill="#0f171b"/><path d="m1111 508.9c-3 0-5.5 2.5-5.5 5.5 0 3 2.5 5.5 5.5 5.5 3 0 5.5-2.5 5.5-5.5 0-3-2.5-5.5-5.5-5.5z" fill="#253841"/><rect width="83.4" height="7.4" ry="3.7" x="1030.2" y="510.8" fill="#141e23"/><path d="m1314.9 501.7c-7 0-12.7 5.8-12.7 12.7 0 7 5.7 12.7 12.7 12.7 7 0 12.7-5.8 12.7-12.8 0-7-5.8-12.7-12.7-12.7z" fill="#0d1417"/><path d="m1314.9 508.9c-3 0-5.5 2.5-5.5 5.5 0 3 2.5 5.5 5.5 5.5 3 0 5.5-2.5 5.5-5.5 0-3-2.5-5.5-5.5-5.5z" fill="#253841"/><path d="m1288.8 501.7c-7 0-12.7 5.8-12.7 12.7 0 7 5.7 12.7 12.7 12.7 7 0 12.7-5.8 12.7-12.8 0-7-5.8-12.7-12.7-12.7z" fill="#0f171b"/><path d="m1288.9 508.9c-3 0-5.5 2.5-5.5 5.5 0 3 2.5 5.5 5.5 5.5 3 0 5.5-2.5 5.5-5.5 0-3-2.5-5.5-5.5-5.5z" fill="#253841"/><path d="m1262.7 501.7c-7 0-12.7 5.8-12.7 12.7 0 7 5.7 12.7 12.7 12.7 7 0 12.7-5.8 12.7-12.8 0-7-5.8-12.7-12.7-12.7z" fill="#0d1417"/><path d="m1262.7 508.9c-3 0-5.5 2.5-5.5 5.5 0 3 2.5 5.5 5.5 5.5 3 0 5.5-2.5 5.5-5.5 0-3-2.5-5.5-5.5-5.5z" fill="#253841"/><path d="m1341 501.7c-7 0-12.7 5.8-12.7 12.7 0 7 5.7 12.7 12.7 12.7 7 0 12.7-5.8 12.7-12.8 0-7-5.8-12.7-12.7-12.7z" fill="#0f171b"/><path d="m1341 508.9c-3 0-5.5 2.5-5.5 5.5 0 3 2.5 5.5 5.5 5.5 3 0 5.5-2.5 5.5-5.5 0-3-2.5-5.5-5.5-5.5z" fill="#253841"/><rect width="83.4" height="7.4" ry="3.7" x="1260.2" y="510.8" fill="#141e23"/><path d="m960 372.6 373.7 0c56.7 0.4 158.3 79.3 158.3 111.8 0 2.3-2.8 5.4-6.2 5.4l-525.7 0c-3.4 0-6.2-2.4-6.2-5.4l0-106.5c0-3 2.8-5.4 6.2-5.4z" fill="#87a3b1"/><path d="m1451.3 430.3c-1.8-1.6-3.6-3.1-5.5-4.7-3.8-3-7.8-6.2-11.8-9.1-4.1-3-8.2-5.9-12.5-8.7-4.2-2.8-8.6-5.5-12.9-8.2-2.2-1.3-4.4-2.6-6.6-3.8-1.6-1-3.3-1.8-4.9-2.7l-103.9 0c-3 0-1.5 1.8-1.5 1.8 0 0 17.5 24.5 30.5 33 1.8 1.2 4.1 1.9 6.3 2.3 40 7.1 122.8 0 122.8 0z" fill="#b5ced6"/><path d="m953.7 404.6 271.2 0 0 36-271.2 0zm7.6 79c-4.2 0-7.6 3.4-7.6 7.6l0 16c0 4.2 3.4 7.6 7.6 7.6l45.4 0c0.6-6.6 6.2-11.6 12.9-11.6l72.7 0c6.7 0 12.2 5 12.9 11.6l131.6 0c0.6-6.6 6.2-11.6 12.9-11.6l72.7 0c6.7 0 12.2 5 12.9 11.6l139.1 0c4.2 0 6-3.7 7.6-7.6l7.2-17.4c0 0-3.4-6.2-7.6-6.2l-520.2 0z" fill="#283b45"/><path d="m953.7 400.3 288.3 0c7.1-0.6 59.1 79.6 49.1 79.6l-337.4 0 0 11.3 534.1 0c12 0 18.2-0.6 14.4-9.7-8.4-18.6-24.3-29.1-24.3-29.1 0 0-2.5-2-8.6-2l-142.6-0.9c-8.8 1.4-47.1-60.3-52.6-60.7l-320.5 0z" fill="#445a66"/><rect width="62" height="36" ry="0" x="1100.3" y="404.6" fill="#456576"/><rect width="62" height="36" ry="0" x="1029.8" y="404.6" fill="#456576"/><rect width="35.7" height="36" ry="0" x="974.1" y="404.6" fill="#456576"/><path d="m1169.4 404.6 58.5 0c3 0 4.5 2.2 5.4 4.6l10.2 26.9c1.8 5-2.4 4.6-5.4 4.6l-68.7 0z" fill="#456576"/></g><g transform="matrix(0.28647866,-0.06665298,0.06665298,0.28647866,374.04831,-43.793195)"><animateMotion values="0,0;0,-10;0,0" repeatCount="indefinite" dur="5s" /><rect width="11" height="122.9" ry="0.4" x="943.6" y="381.2" fill="#0f171b"/><path d="m819.7 501.5c-7 0-12.7 5.8-12.7 12.7 0 7 5.7 12.7 12.7 12.7 7 0 12.7-5.8 12.7-12.8 0-7-5.8-12.7-12.7-12.7z" fill="#0d1417"/><path d="m819.7 508.7c-3 0-5.5 2.5-5.5 5.5 0 3 2.5 5.5 5.5 5.5 3 0 5.5-2.5 5.5-5.5 0-3-2.5-5.5-5.5-5.5z" fill="#253841"/><path d="m793.6 501.5c-7 0-12.7 5.8-12.7 12.7 0 7 5.7 12.7 12.7 12.7 7 0 12.7-5.8 12.7-12.8 0-7-5.8-12.7-12.7-12.7z" fill="#0f171b"/><path d="m793.6 508.7c-3 0-5.5 2.5-5.5 5.5 0 3 2.5 5.5 5.5 5.5 3 0 5.5-2.5 5.5-5.5 0-3-2.5-5.5-5.5-5.5z" fill="#253841"/><path d="m767.5 501.5c-7 0-12.7 5.8-12.7 12.7 0 7 5.7 12.7 12.7 12.7 7 0 12.7-5.8 12.7-12.8 0-7-5.8-12.7-12.7-12.7z" fill="#0d1417"/><path d="m767.5 508.7c-3 0-5.5 2.5-5.5 5.5 0 3 2.5 5.5 5.5 5.5 3 0 5.5-2.5 5.5-5.5 0-3-2.5-5.5-5.5-5.5z" fill="#253841"/><path d="m845.7 501.5c-7 0-12.7 5.8-12.7 12.7 0 7 5.7 12.7 12.7 12.7 7 0 12.7-5.8 12.7-12.8 0-7-5.8-12.7-12.7-12.7z" fill="#0f171b"/><path d="m845.8 508.7c-3 0-5.5 2.5-5.5 5.5 0 3 2.5 5.5 5.5 5.5 3 0 5.5-2.5 5.5-5.5 0-3-2.5-5.5-5.5-5.5z" fill="#253841"/><path d="m768.6 510.6 76 0c2 0 3.7 1.6 3.7 3.7 0 2-1.6 3.7-3.7 3.7l-76 0c-2 0-3.7-1.6-3.7-3.7 0-2 1.6-3.7 3.7-3.7z" fill="#141e23"/><path d="m589.8 501.5c-7 0-12.7 5.8-12.7 12.7 0 7 5.7 12.7 12.7 12.7 7 0 12.7-5.8 12.7-12.8 0-7-5.8-12.7-12.7-12.7z" fill="#0d1417"/><path d="m589.8 508.7c-3 0-5.5 2.5-5.5 5.5 0 3 2.5 5.5 5.5 5.5 3 0 5.5-2.5 5.5-5.5 0-3-2.5-5.5-5.5-5.5z" fill="#253841"/><path d="m563.8 501.5c-7 0-12.7 5.8-12.7 12.7 0 7 5.7 12.7 12.7 12.7 7 0 12.7-5.8 12.7-12.8 0-7-5.8-12.7-12.7-12.7z" fill="#0f171b"/><path d="m563.8 508.7c-3 0-5.5 2.5-5.5 5.5 0 3 2.5 5.5 5.5 5.5 3 0 5.5-2.5 5.5-5.5 0-3-2.5-5.5-5.5-5.5z" fill="#253841"/><path d="m537.6 501.5c-7 0-12.7 5.8-12.7 12.7 0 7 5.7 12.7 12.7 12.7 7 0 12.7-5.8 12.7-12.8 0-7-5.8-12.7-12.7-12.7z" fill="#0d1417"/><path d="m537.7 508.7c-3 0-5.5 2.5-5.5 5.5 0 3 2.5 5.5 5.5 5.5 3 0 5.5-2.5 5.5-5.5 0-3-2.5-5.5-5.5-5.5z" fill="#253841"/><path d="m616 501.5c-7 0-12.7 5.8-12.7 12.7 0 7 5.7 12.7 12.7 12.7 7 0 12.7-5.8 12.7-12.8 0-7-5.8-12.7-12.7-12.7z" fill="#0f171b"/><path d="m616 508.7c-3 0-5.5 2.5-5.5 5.5 0 3 2.5 5.5 5.5 5.5 3 0 5.5-2.5 5.5-5.5 0-3-2.5-5.5-5.5-5.5z" fill="#253841"/><path d="m538.8 510.6 76 0c2 0 3.7 1.6 3.7 3.7 0 2-1.6 3.7-3.7 3.7l-76 0c-2 0-3.7-1.6-3.7-3.7 0-2 1.6-3.7 3.7-3.7z" fill="#141e23"/><path d="m419.5 484.8c-4.5 0-8.1 3.6-8.1 8.1l0 15.1c0 4.5 3.6 8.1 8.1 8.1l93.4 0c0.6-6.6 6.2-11.6 12.9-11.6l72.7 0c6.7 0 12.2 5 12.9 11.6l131.6 0c0.6-6.6 6.2-11.6 12.9-11.6l72.7 0c6.7 0 12.2 5 12.9 11.6l97.4 0c4.5 0 8.1-3.6 8.1-8.1l0-15.1c0-4.5-3.6-8.1-8.1-8.1z" fill="#283b45"/><path d="m417.7 371.9c-3.4 0-6.2 2.4-6.2 5.4l0 106.5c0 3 2.8 5.4 6.2 5.4l522.9 0c3.4 0 6.2-2.4 6.2-5.4l0-106.5c0-3-2.8-5.4-6.2-5.4z" fill="#bfccd3"/><path d="m411.5 399.5 535.4 0 0 79.6-535.4 0 0 11.3 535.4 0 0-102.4-535.4 0z" fill="#87a3b1"/><rect width="503.3" height="36" ry="6.4" x="426.9" y="404.6" fill="#283b45"/><rect width="62" height="36" ry="0" x="789.6" y="404.6" fill="#456576"/><rect width="62" height="36" ry="0" x="718.5" y="404.6" fill="#456576"/><rect width="62" height="36" ry="0" x="647.5" y="404.6" fill="#456576"/><rect width="62" height="36" ry="0" x="576.6" y="404.6" fill="#456576"/><rect width="62" height="36" ry="0" x="505.5" y="404.6" fill="#456576"/><rect width="35.7" height="36" ry="0" x="880.9" y="404.6" fill="#456576"/><rect width="35.7" height="36" ry="0" x="440.5" y="404.6" fill="#456576"/></g></g></g></svg>